<?xml version="1.0" encoding="utf-8"?>
<svg version="1.1" xmlns:xlink="http://www.w3.org/1999/xlink" width="72px" height="23px" xmlns="http://www.w3.org/2000/svg">
  <defs>
    <mask fill="white" id="clip31">
      <path d="M 0 18  L 0 5  C 0 2.19999999999999  2.20000000000005 0  5 0  L 44.6875000000011 0  L 67 0  C 69.8 0  72 2.19999999999999  72 5  L 72 18  C 72 20.8  69.8 23  67 23  L 43.4375000000023 23  L 5 23  C 2.20000000000005 23  0 20.8  0 18  Z " fill-rule="evenodd" />
    </mask>
  </defs>
  <g transform="matrix(1 0 0 1 -266 -309 )">
    <path d="M 0 18  L 0 5  C 0 2.19999999999999  2.20000000000005 0  5 0  L 44.6875000000011 0  L 67 0  C 69.8 0  72 2.19999999999999  72 5  L 72 18  C 72 20.8  69.8 23  67 23  L 43.4375000000023 23  L 5 23  C 2.20000000000005 23  0 20.8  0 18  Z " fill-rule="nonzero" fill="#ffffff" stroke="none" transform="matrix(1 0 0 1 266 309 )" />
    <path d="M 0 18  L 0 5  C 0 2.19999999999999  2.20000000000005 0  5 0  L 44.6875000000011 0  L 67 0  C 69.8 0  72 2.19999999999999  72 5  L 72 18  C 72 20.8  69.8 23  67 23  L 43.4375000000023 23  L 5 23  C 2.20000000000005 23  0 20.8  0 18  Z " stroke-width="2" stroke="#fa7298" fill="none" transform="matrix(1 0 0 1 266 309 )" mask="url(#clip31)" />
  </g>
</svg>