<?xml version="1.0" encoding="utf-8"?>
<svg version="1.1" xmlns:xlink="http://www.w3.org/1999/xlink" width="52px" height="12px" xmlns="http://www.w3.org/2000/svg">
  <defs>
    <mask fill="white" id="clip33">
      <path d="M 0 12  L 0 0  L 11.9565217391317 0  L 29.3478260869578 0  L 35.6086956521759 0  L 52 0  L 52 12  L 27.2608695652174 12  L 22.3913043478274 12  L 0 12  Z " fill-rule="evenodd" />
    </mask>
  </defs>
  <g transform="matrix(1 0 0 1 -157 -160 )">
    <path d="M 0 12  L 0 0  L 11.9565217391317 0  L 29.3478260869578 0  L 35.6086956521759 0  L 52 0  L 52 12  L 27.2608695652174 12  L 22.3913043478274 12  L 0 12  Z " fill-rule="nonzero" fill="#ffffff" stroke="none" transform="matrix(1 0 0 1 157 160 )" />
    <path d="M 0 12  L 0 0  L 11.9565217391317 0  L 29.3478260869578 0  L 35.6086956521759 0  L 52 0  L 52 12  L 27.2608695652174 12  L 22.3913043478274 12  L 0 12  Z " stroke-width="2" stroke="#e4e4e4" fill="none" transform="matrix(1 0 0 1 157 160 )" mask="url(#clip33)" />
  </g>
</svg>