<?xml version="1.0" encoding="utf-8"?>
<svg version="1.1" xmlns:xlink="http://www.w3.org/1999/xlink" width="27px" height="27px" xmlns="http://www.w3.org/2000/svg">
  <defs>
    <mask fill="white" id="clip27">
      <path d="M 16.681640625 16.681640625  C 17.560546875 15.802734375  18 14.7421875  18 13.5  C 18 12.2578125  17.560546875 11.197265625  16.681640625 10.318359375  C 15.802734375 9.439453125  14.7421875 9  13.5 9  C 12.2578125 9  11.197265625 9.439453125  10.318359375 10.318359375  C 9.439453125 11.197265625  9 12.2578125  9 13.5  C 9 14.7421875  9.439453125 15.802734375  10.318359375 16.681640625  C 11.197265625 17.560546875  12.2578125 18  13.5 18  C 14.7421875 18  15.802734375 17.560546875  16.681640625 16.681640625  Z M 26.859375 11.1708984375  C 26.953125 11.2939453125  27 11.431640625  27 11.583984375  L 27 15.486328125  C 27 15.626953125  26.953125 15.76171875  26.859375 15.890625  C 26.765625 16.01953125  26.6484375 16.095703125  26.5078125 16.119140625  L 23.255859375 16.611328125  C 23.033203125 17.244140625  22.8046875 17.77734375  22.5703125 18.2109375  C 22.98046875 18.796875  23.607421875 19.60546875  24.451171875 20.63671875  C 24.568359375 20.77734375  24.626953125 20.923828125  24.626953125 21.076171875  C 24.626953125 21.228515625  24.57421875 21.36328125  24.46875 21.48046875  C 24.15234375 21.9140625  23.572265625 22.546875  22.728515625 23.37890625  C 21.884765625 24.2109375  21.333984375 24.626953125  21.076171875 24.626953125  C 20.935546875 24.626953125  20.783203125 24.57421875  20.619140625 24.46875  L 18.193359375 22.5703125  C 17.677734375 22.83984375  17.14453125 23.0625  16.59375 23.23828125  C 16.40625 24.83203125  16.236328125 25.921875  16.083984375 26.5078125  C 16.001953125 26.8359375  15.791015625 27  15.451171875 27  L 11.548828125 27  C 11.384765625 27  11.2412109375 26.9501953125  11.1181640625 26.8505859375  C 10.9951171875 26.7509765625  10.927734375 26.625  10.916015625 26.47265625  L 10.423828125 23.23828125  C 9.849609375 23.05078125  9.322265625 22.833984375  8.841796875 22.587890625  L 6.36328125 24.46875  C 6.24609375 24.57421875  6.099609375 24.626953125  5.923828125 24.626953125  C 5.759765625 24.626953125  5.61328125 24.5625  5.484375 24.43359375  C 4.0078125 23.09765625  3.041015625 22.11328125  2.583984375 21.48046875  C 2.501953125 21.36328125  2.4609375 21.228515625  2.4609375 21.076171875  C 2.4609375 20.935546875  2.5078125 20.80078125  2.6015625 20.671875  C 2.77734375 20.42578125  3.076171875 20.0361328125  3.498046875 19.5029296875  C 3.919921875 18.9697265625  4.236328125 18.556640625  4.447265625 18.263671875  C 4.130859375 17.677734375  3.890625 17.09765625  3.7265625 16.5234375  L 0.509765625 16.048828125  C 0.357421875 16.025390625  0.234375 15.9521484375  0.140625 15.8291015625  C 0.046875 15.7060546875  0 15.568359375  0 15.416015625  L 0 11.513671875  C 0 11.373046875  0.046875 11.23828125  0.140625 11.109375  C 0.234375 10.98046875  0.345703125 10.904296875  0.474609375 10.880859375  L 3.744140625 10.388671875  C 3.908203125 9.849609375  4.13671875 9.310546875  4.4296875 8.771484375  C 3.9609375 8.103515625  3.333984375 7.294921875  2.548828125 6.345703125  C 2.431640625 6.205078125  2.373046875 6.064453125  2.373046875 5.923828125  C 2.373046875 5.806640625  2.42578125 5.671875  2.53125 5.51953125  C 2.8359375 5.09765625  3.4130859375 4.4677734375  4.2626953125 3.6298828125  C 5.1123046875 2.7919921875  5.666015625 2.373046875  5.923828125 2.373046875  C 6.076171875 2.373046875  6.228515625 2.431640625  6.380859375 2.548828125  L 8.806640625 4.4296875  C 9.322265625 4.16015625  9.85546875 3.9375  10.40625 3.76171875  C 10.59375 2.16796875  10.763671875 1.078125  10.916015625 0.492187499999999  C 10.998046875 0.164062499999999  11.208984375 0  11.548828125 0  L 15.451171875 0  C 15.615234375 0  15.7587890625 0.0498046874999977  15.8818359375 0.149414062499999  C 16.0048828125 0.249023437499997  16.072265625 0.374999999999999  16.083984375 0.52734375  L 16.576171875 3.76171875  C 17.150390625 3.94921875  17.677734375 4.166015625  18.158203125 4.412109375  L 20.654296875 2.53125  C 20.759765625 2.42578125  20.900390625 2.373046875  21.076171875 2.373046875  C 21.228515625 2.373046875  21.375 2.431640625  21.515625 2.548828125  C 23.02734375 3.943359375  23.994140625 4.939453125  24.416015625 5.537109375  C 24.498046875 5.630859375  24.5390625 5.759765625  24.5390625 5.923828125  C 24.5390625 6.064453125  24.4921875 6.19921875  24.3984375 6.328125  C 24.22265625 6.57421875  23.923828125 6.9638671875  23.501953125 7.4970703125  C 23.080078125 8.0302734375  22.763671875 8.443359375  22.552734375 8.736328125  C 22.857421875 9.322265625  23.09765625 9.896484375  23.2734375 10.458984375  L 26.490234375 10.951171875  C 26.642578125 10.974609375  26.765625 11.0478515625  26.859375 11.1708984375  Z " fill-rule="evenodd" />
    </mask>
  </defs>
  <g transform="matrix(1 0 0 1 -314 -76 )">
    <path d="M 16.681640625 16.681640625  C 17.560546875 15.802734375  18 14.7421875  18 13.5  C 18 12.2578125  17.560546875 11.197265625  16.681640625 10.318359375  C 15.802734375 9.439453125  14.7421875 9  13.5 9  C 12.2578125 9  11.197265625 9.439453125  10.318359375 10.318359375  C 9.439453125 11.197265625  9 12.2578125  9 13.5  C 9 14.7421875  9.439453125 15.802734375  10.318359375 16.681640625  C 11.197265625 17.560546875  12.2578125 18  13.5 18  C 14.7421875 18  15.802734375 17.560546875  16.681640625 16.681640625  Z M 26.859375 11.1708984375  C 26.953125 11.2939453125  27 11.431640625  27 11.583984375  L 27 15.486328125  C 27 15.626953125  26.953125 15.76171875  26.859375 15.890625  C 26.765625 16.01953125  26.6484375 16.095703125  26.5078125 16.119140625  L 23.255859375 16.611328125  C 23.033203125 17.244140625  22.8046875 17.77734375  22.5703125 18.2109375  C 22.98046875 18.796875  23.607421875 19.60546875  24.451171875 20.63671875  C 24.568359375 20.77734375  24.626953125 20.923828125  24.626953125 21.076171875  C 24.626953125 21.228515625  24.57421875 21.36328125  24.46875 21.48046875  C 24.15234375 21.9140625  23.572265625 22.546875  22.728515625 23.37890625  C 21.884765625 24.2109375  21.333984375 24.626953125  21.076171875 24.626953125  C 20.935546875 24.626953125  20.783203125 24.57421875  20.619140625 24.46875  L 18.193359375 22.5703125  C 17.677734375 22.83984375  17.14453125 23.0625  16.59375 23.23828125  C 16.40625 24.83203125  16.236328125 25.921875  16.083984375 26.5078125  C 16.001953125 26.8359375  15.791015625 27  15.451171875 27  L 11.548828125 27  C 11.384765625 27  11.2412109375 26.9501953125  11.1181640625 26.8505859375  C 10.9951171875 26.7509765625  10.927734375 26.625  10.916015625 26.47265625  L 10.423828125 23.23828125  C 9.849609375 23.05078125  9.322265625 22.833984375  8.841796875 22.587890625  L 6.36328125 24.46875  C 6.24609375 24.57421875  6.099609375 24.626953125  5.923828125 24.626953125  C 5.759765625 24.626953125  5.61328125 24.5625  5.484375 24.43359375  C 4.0078125 23.09765625  3.041015625 22.11328125  2.583984375 21.48046875  C 2.501953125 21.36328125  2.4609375 21.228515625  2.4609375 21.076171875  C 2.4609375 20.935546875  2.5078125 20.80078125  2.6015625 20.671875  C 2.77734375 20.42578125  3.076171875 20.0361328125  3.498046875 19.5029296875  C 3.919921875 18.9697265625  4.236328125 18.556640625  4.447265625 18.263671875  C 4.130859375 17.677734375  3.890625 17.09765625  3.7265625 16.5234375  L 0.509765625 16.048828125  C 0.357421875 16.025390625  0.234375 15.9521484375  0.140625 15.8291015625  C 0.046875 15.7060546875  0 15.568359375  0 15.416015625  L 0 11.513671875  C 0 11.373046875  0.046875 11.23828125  0.140625 11.109375  C 0.234375 10.98046875  0.345703125 10.904296875  0.474609375 10.880859375  L 3.744140625 10.388671875  C 3.908203125 9.849609375  4.13671875 9.310546875  4.4296875 8.771484375  C 3.9609375 8.103515625  3.333984375 7.294921875  2.548828125 6.345703125  C 2.431640625 6.205078125  2.373046875 6.064453125  2.373046875 5.923828125  C 2.373046875 5.806640625  2.42578125 5.671875  2.53125 5.51953125  C 2.8359375 5.09765625  3.4130859375 4.4677734375  4.2626953125 3.6298828125  C 5.1123046875 2.7919921875  5.666015625 2.373046875  5.923828125 2.373046875  C 6.076171875 2.373046875  6.228515625 2.431640625  6.380859375 2.548828125  L 8.806640625 4.4296875  C 9.322265625 4.16015625  9.85546875 3.9375  10.40625 3.76171875  C 10.59375 2.16796875  10.763671875 1.078125  10.916015625 0.492187499999999  C 10.998046875 0.164062499999999  11.208984375 0  11.548828125 0  L 15.451171875 0  C 15.615234375 0  15.7587890625 0.0498046874999977  15.8818359375 0.149414062499999  C 16.0048828125 0.249023437499997  16.072265625 0.374999999999999  16.083984375 0.52734375  L 16.576171875 3.76171875  C 17.150390625 3.94921875  17.677734375 4.166015625  18.158203125 4.412109375  L 20.654296875 2.53125  C 20.759765625 2.42578125  20.900390625 2.373046875  21.076171875 2.373046875  C 21.228515625 2.373046875  21.375 2.431640625  21.515625 2.548828125  C 23.02734375 3.943359375  23.994140625 4.939453125  24.416015625 5.537109375  C 24.498046875 5.630859375  24.5390625 5.759765625  24.5390625 5.923828125  C 24.5390625 6.064453125  24.4921875 6.19921875  24.3984375 6.328125  C 24.22265625 6.57421875  23.923828125 6.9638671875  23.501953125 7.4970703125  C 23.080078125 8.0302734375  22.763671875 8.443359375  22.552734375 8.736328125  C 22.857421875 9.322265625  23.09765625 9.896484375  23.2734375 10.458984375  L 26.490234375 10.951171875  C 26.642578125 10.974609375  26.765625 11.0478515625  26.859375 11.1708984375  Z " fill-rule="nonzero" fill="#ffffff" stroke="none" transform="matrix(1 0 0 1 314 76 )" />
    <path d="M 16.681640625 16.681640625  C 17.560546875 15.802734375  18 14.7421875  18 13.5  C 18 12.2578125  17.560546875 11.197265625  16.681640625 10.318359375  C 15.802734375 9.439453125  14.7421875 9  13.5 9  C 12.2578125 9  11.197265625 9.439453125  10.318359375 10.318359375  C 9.439453125 11.197265625  9 12.2578125  9 13.5  C 9 14.7421875  9.439453125 15.802734375  10.318359375 16.681640625  C 11.197265625 17.560546875  12.2578125 18  13.5 18  C 14.7421875 18  15.802734375 17.560546875  16.681640625 16.681640625  Z " stroke-width="2" stroke="#555555" fill="none" transform="matrix(1 0 0 1 314 76 )" mask="url(#clip27)" />
    <path d="M 26.859375 11.1708984375  C 26.953125 11.2939453125  27 11.431640625  27 11.583984375  L 27 15.486328125  C 27 15.626953125  26.953125 15.76171875  26.859375 15.890625  C 26.765625 16.01953125  26.6484375 16.095703125  26.5078125 16.119140625  L 23.255859375 16.611328125  C 23.033203125 17.244140625  22.8046875 17.77734375  22.5703125 18.2109375  C 22.98046875 18.796875  23.607421875 19.60546875  24.451171875 20.63671875  C 24.568359375 20.77734375  24.626953125 20.923828125  24.626953125 21.076171875  C 24.626953125 21.228515625  24.57421875 21.36328125  24.46875 21.48046875  C 24.15234375 21.9140625  23.572265625 22.546875  22.728515625 23.37890625  C 21.884765625 24.2109375  21.333984375 24.626953125  21.076171875 24.626953125  C 20.935546875 24.626953125  20.783203125 24.57421875  20.619140625 24.46875  L 18.193359375 22.5703125  C 17.677734375 22.83984375  17.14453125 23.0625  16.59375 23.23828125  C 16.40625 24.83203125  16.236328125 25.921875  16.083984375 26.5078125  C 16.001953125 26.8359375  15.791015625 27  15.451171875 27  L 11.548828125 27  C 11.384765625 27  11.2412109375 26.9501953125  11.1181640625 26.8505859375  C 10.9951171875 26.7509765625  10.927734375 26.625  10.916015625 26.47265625  L 10.423828125 23.23828125  C 9.849609375 23.05078125  9.322265625 22.833984375  8.841796875 22.587890625  L 6.36328125 24.46875  C 6.24609375 24.57421875  6.099609375 24.626953125  5.923828125 24.626953125  C 5.759765625 24.626953125  5.61328125 24.5625  5.484375 24.43359375  C 4.0078125 23.09765625  3.041015625 22.11328125  2.583984375 21.48046875  C 2.501953125 21.36328125  2.4609375 21.228515625  2.4609375 21.076171875  C 2.4609375 20.935546875  2.5078125 20.80078125  2.6015625 20.671875  C 2.77734375 20.42578125  3.076171875 20.0361328125  3.498046875 19.5029296875  C 3.919921875 18.9697265625  4.236328125 18.556640625  4.447265625 18.263671875  C 4.130859375 17.677734375  3.890625 17.09765625  3.7265625 16.5234375  L 0.509765625 16.048828125  C 0.357421875 16.025390625  0.234375 15.9521484375  0.140625 15.8291015625  C 0.046875 15.7060546875  0 15.568359375  0 15.416015625  L 0 11.513671875  C 0 11.373046875  0.046875 11.23828125  0.140625 11.109375  C 0.234375 10.98046875  0.345703125 10.904296875  0.474609375 10.880859375  L 3.744140625 10.388671875  C 3.908203125 9.849609375  4.13671875 9.310546875  4.4296875 8.771484375  C 3.9609375 8.103515625  3.333984375 7.294921875  2.548828125 6.345703125  C 2.431640625 6.205078125  2.373046875 6.064453125  2.373046875 5.923828125  C 2.373046875 5.806640625  2.42578125 5.671875  2.53125 5.51953125  C 2.8359375 5.09765625  3.4130859375 4.4677734375  4.2626953125 3.6298828125  C 5.1123046875 2.7919921875  5.666015625 2.373046875  5.923828125 2.373046875  C 6.076171875 2.373046875  6.228515625 2.431640625  6.380859375 2.548828125  L 8.806640625 4.4296875  C 9.322265625 4.16015625  9.85546875 3.9375  10.40625 3.76171875  C 10.59375 2.16796875  10.763671875 1.078125  10.916015625 0.492187499999999  C 10.998046875 0.164062499999999  11.208984375 0  11.548828125 0  L 15.451171875 0  C 15.615234375 0  15.7587890625 0.0498046874999977  15.8818359375 0.149414062499999  C 16.0048828125 0.249023437499997  16.072265625 0.374999999999999  16.083984375 0.52734375  L 16.576171875 3.76171875  C 17.150390625 3.94921875  17.677734375 4.166015625  18.158203125 4.412109375  L 20.654296875 2.53125  C 20.759765625 2.42578125  20.900390625 2.373046875  21.076171875 2.373046875  C 21.228515625 2.373046875  21.375 2.431640625  21.515625 2.548828125  C 23.02734375 3.943359375  23.994140625 4.939453125  24.416015625 5.537109375  C 24.498046875 5.630859375  24.5390625 5.759765625  24.5390625 5.923828125  C 24.5390625 6.064453125  24.4921875 6.19921875  24.3984375 6.328125  C 24.22265625 6.57421875  23.923828125 6.9638671875  23.501953125 7.4970703125  C 23.080078125 8.0302734375  22.763671875 8.443359375  22.552734375 8.736328125  C 22.857421875 9.322265625  23.09765625 9.896484375  23.2734375 10.458984375  L 26.490234375 10.951171875  C 26.642578125 10.974609375  26.765625 11.0478515625  26.859375 11.1708984375  Z " stroke-width="2" stroke="#555555" fill="none" transform="matrix(1 0 0 1 314 76 )" mask="url(#clip27)" />
  </g>
</svg>