<?xml version="1.0" encoding="utf-8"?>
<svg version="1.1" xmlns:xlink="http://www.w3.org/1999/xlink" width="25px" height="31px" xmlns="http://www.w3.org/2000/svg">
  <g transform="matrix(1 0 0 1 -43 -381 )">
    <path d="M 1.13636363636364 0  L 23.8636363636364 0  C 24.1714015151515 0  24.4377367424242 0.109561011904765  24.6626420454545 0.328683035714287  C 24.8875473484849 0.547805059523805  25 0.807291666666666  25 1.10714285714286  L 25 29.8928571428571  C 25 30.1927083333333  24.8875473484849 30.4521949404762  24.6626420454545 30.6713169642857  C 24.4377367424242 30.8904389880952  24.1714015151515 31  23.8636363636364 31  L 1.13636363636364 31  C 0.828598484848485 31  0.562263257575758 30.8904389880952  0.337357954545455 30.6713169642857  C 0.112452651515152 30.4521949404762  0 30.1927083333333  0 29.8928571428571  L 0 1.10714285714286  C 0 0.807291666666666  0.112452651515152 0.547805059523805  0.337357954545455 0.328683035714287  C 0.562263257575758 0.109561011904765  0.828598484848485 0  1.13636363636364 0  Z M 9.25071022727273 4.58426339285714  C 9.14417613636364 4.68805803571429  9.09090909090909 4.82068452380952  9.09090909090909 4.98214285714286  L 9.09090909090909 6.08928571428571  C 9.09090909090909 6.25074404761905  9.14417613636364 6.38337053571429  9.25071022727273 6.48716517857143  C 9.35724431818182 6.59095982142857  9.49337121212121 6.64285714285714  9.65909090909091 6.64285714285714  L 10.7954545454545 6.64285714285714  C 10.9611742424242 6.64285714285714  11.0973011363636 6.59095982142857  11.2038352272727 6.48716517857143  C 11.3103693181818 6.38337053571429  11.3636363636364 6.25074404761905  11.3636363636364 6.08928571428571  L 11.3636363636364 4.98214285714286  C 11.3636363636364 4.82068452380952  11.3103693181818 4.68805803571429  11.2038352272727 4.58426339285714  C 11.0973011363636 4.48046875  10.9611742424242 4.42857142857143  10.7954545454545 4.42857142857143  L 9.65909090909091 4.42857142857143  C 9.49337121212121 4.42857142857143  9.35724431818182 4.48046875  9.25071022727273 4.58426339285714  Z M 9.25071022727273 9.01283482142857  C 9.14417613636364 9.11662946428571  9.09090909090909 9.24925595238095  9.09090909090909 9.41071428571429  L 9.09090909090909 10.5178571428571  C 9.09090909090909 10.6793154761905  9.14417613636364 10.8119419642857  9.25071022727273 10.9157366071429  C 9.35724431818182 11.01953125  9.49337121212121 11.0714285714286  9.65909090909091 11.0714285714286  L 10.7954545454545 11.0714285714286  C 10.9611742424242 11.0714285714286  11.0973011363636 11.01953125  11.2038352272727 10.9157366071429  C 11.3103693181818 10.8119419642857  11.3636363636364 10.6793154761905  11.3636363636364 10.5178571428571  L 11.3636363636364 9.41071428571429  C 11.3636363636364 9.24925595238095  11.3103693181818 9.11662946428571  11.2038352272727 9.01283482142857  C 11.0973011363636 8.90904017857143  10.9611742424242 8.85714285714286  10.7954545454545 8.85714285714286  L 9.65909090909091 8.85714285714286  C 9.49337121212121 8.85714285714286  9.35724431818182 8.90904017857143  9.25071022727273 9.01283482142857  Z M 9.25071022727273 13.44140625  C 9.14417613636364 13.5452008928571  9.09090909090909 13.6778273809524  9.09090909090909 13.8392857142857  L 9.09090909090909 14.9464285714286  C 9.09090909090909 15.1078869047619  9.14417613636364 15.2405133928571  9.25071022727273 15.3443080357143  C 9.35724431818182 15.4481026785714  9.49337121212121 15.5  9.65909090909091 15.5  L 10.7954545454545 15.5  C 10.9611742424242 15.5  11.0973011363636 15.4481026785714  11.2038352272727 15.3443080357143  C 11.3103693181818 15.2405133928571  11.3636363636364 15.1078869047619  11.3636363636364 14.9464285714286  L 11.3636363636364 13.8392857142857  C 11.3636363636364 13.6778273809524  11.3103693181818 13.5452008928571  11.2038352272727 13.44140625  C 11.0973011363636 13.3376116071429  10.9611742424242 13.2857142857143  10.7954545454545 13.2857142857143  L 9.65909090909091 13.2857142857143  C 9.49337121212121 13.2857142857143  9.35724431818182 13.3376116071429  9.25071022727273 13.44140625  Z M 9.25071022727273 17.8699776785714  C 9.14417613636364 17.9737723214286  9.09090909090909 18.1063988095238  9.09090909090909 18.2678571428571  L 9.09090909090909 19.375  C 9.09090909090909 19.5364583333333  9.14417613636364 19.6690848214286  9.25071022727273 19.7728794642857  C 9.35724431818182 19.8766741071429  9.49337121212121 19.9285714285714  9.65909090909091 19.9285714285714  L 10.7954545454545 19.9285714285714  C 10.9611742424242 19.9285714285714  11.0973011363636 19.8766741071429  11.2038352272727 19.7728794642857  C 11.3103693181818 19.6690848214286  11.3636363636364 19.5364583333333  11.3636363636364 19.375  L 11.3636363636364 18.2678571428571  C 11.3636363636364 18.1063988095238  11.3103693181818 17.9737723214286  11.2038352272727 17.8699776785714  C 11.0973011363636 17.7661830357143  10.9611742424242 17.7142857142857  10.7954545454545 17.7142857142857  L 9.65909090909091 17.7142857142857  C 9.49337121212121 17.7142857142857  9.35724431818182 17.7661830357143  9.25071022727273 17.8699776785714  Z M 6.65838068181818 24.2014508928571  C 6.76491477272727 24.09765625  6.81818181818182 23.9650297619048  6.81818181818182 23.8035714285714  L 6.81818181818182 22.6964285714286  C 6.81818181818182 22.5349702380952  6.76491477272727 22.40234375  6.65838068181818 22.2985491071429  C 6.55184659090909 22.1947544642857  6.4157196969697 22.1428571428571  6.25 22.1428571428571  L 5.11363636363636 22.1428571428571  C 4.94791666666667 22.1428571428571  4.81178977272727 22.1947544642857  4.70525568181818 22.2985491071429  C 4.59872159090909 22.40234375  4.54545454545455 22.5349702380952  4.54545454545455 22.6964285714286  L 4.54545454545455 23.8035714285714  C 4.54545454545455 23.9650297619048  4.59872159090909 24.09765625  4.70525568181818 24.2014508928571  C 4.81178977272727 24.3052455357143  4.94791666666667 24.3571428571429  5.11363636363636 24.3571428571429  L 6.25 24.3571428571429  C 6.4157196969697 24.3571428571429  6.55184659090909 24.3052455357143  6.65838068181818 24.2014508928571  Z M 6.65838068181818 19.7728794642857  C 6.76491477272727 19.6690848214286  6.81818181818182 19.5364583333333  6.81818181818182 19.375  L 6.81818181818182 18.2678571428571  C 6.81818181818182 18.1063988095238  6.76491477272727 17.9737723214286  6.65838068181818 17.8699776785714  C 6.55184659090909 17.7661830357143  6.4157196969697 17.7142857142857  6.25 17.7142857142857  L 5.11363636363636 17.7142857142857  C 4.94791666666667 17.7142857142857  4.81178977272727 17.7661830357143  4.70525568181818 17.8699776785714  C 4.59872159090909 17.9737723214286  4.54545454545455 18.1063988095238  4.54545454545455 18.2678571428571  L 4.54545454545455 19.375  C 4.54545454545455 19.5364583333333  4.59872159090909 19.6690848214286  4.70525568181818 19.7728794642857  C 4.81178977272727 19.8766741071429  4.94791666666667 19.9285714285714  5.11363636363636 19.9285714285714  L 6.25 19.9285714285714  C 6.4157196969697 19.9285714285714  6.55184659090909 19.8766741071429  6.65838068181818 19.7728794642857  Z M 6.65838068181818 15.3443080357143  C 6.76491477272727 15.2405133928571  6.81818181818182 15.1078869047619  6.81818181818182 14.9464285714286  L 6.81818181818182 13.8392857142857  C 6.81818181818182 13.6778273809524  6.76491477272727 13.5452008928571  6.65838068181818 13.44140625  C 6.55184659090909 13.3376116071429  6.4157196969697 13.2857142857143  6.25 13.2857142857143  L 5.11363636363636 13.2857142857143  C 4.94791666666667 13.2857142857143  4.81178977272727 13.3376116071429  4.70525568181818 13.44140625  C 4.59872159090909 13.5452008928571  4.54545454545455 13.6778273809524  4.54545454545455 13.8392857142857  L 4.54545454545455 14.9464285714286  C 4.54545454545455 15.1078869047619  4.59872159090909 15.2405133928571  4.70525568181818 15.3443080357143  C 4.81178977272727 15.4481026785714  4.94791666666667 15.5  5.11363636363636 15.5  L 6.25 15.5  C 6.4157196969697 15.5  6.55184659090909 15.4481026785714  6.65838068181818 15.3443080357143  Z M 6.65838068181818 10.9157366071429  C 6.76491477272727 10.8119419642857  6.81818181818182 10.6793154761905  6.81818181818182 10.5178571428571  L 6.81818181818182 9.41071428571429  C 6.81818181818182 9.24925595238095  6.76491477272727 9.11662946428571  6.65838068181818 9.01283482142857  C 6.55184659090909 8.90904017857143  6.4157196969697 8.85714285714286  6.25 8.85714285714286  L 5.11363636363636 8.85714285714286  C 4.94791666666667 8.85714285714286  4.81178977272727 8.90904017857143  4.70525568181818 9.01283482142857  C 4.59872159090909 9.11662946428571  4.54545454545455 9.24925595238095  4.54545454545455 9.41071428571429  L 4.54545454545455 10.5178571428571  C 4.54545454545455 10.6793154761905  4.59872159090909 10.8119419642857  4.70525568181818 10.9157366071429  C 4.81178977272727 11.01953125  4.94791666666667 11.0714285714286  5.11363636363636 11.0714285714286  L 6.25 11.0714285714286  C 6.4157196969697 11.0714285714286  6.55184659090909 11.01953125  6.65838068181818 10.9157366071429  Z M 6.65838068181818 6.48716517857143  C 6.76491477272727 6.38337053571429  6.81818181818182 6.25074404761905  6.81818181818182 6.08928571428571  L 6.81818181818182 4.98214285714286  C 6.81818181818182 4.82068452380952  6.76491477272727 4.68805803571429  6.65838068181818 4.58426339285714  C 6.55184659090909 4.48046875  6.4157196969697 4.42857142857143  6.25 4.42857142857143  L 5.11363636363636 4.42857142857143  C 4.94791666666667 4.42857142857143  4.81178977272727 4.48046875  4.70525568181818 4.58426339285714  C 4.59872159090909 4.68805803571429  4.54545454545455 4.82068452380952  4.54545454545455 4.98214285714286  L 4.54545454545455 6.08928571428571  C 4.54545454545455 6.25074404761905  4.59872159090909 6.38337053571429  4.70525568181818 6.48716517857143  C 4.81178977272727 6.59095982142857  4.94791666666667 6.64285714285714  5.11363636363636 6.64285714285714  L 6.25 6.64285714285714  C 6.4157196969697 6.64285714285714  6.55184659090909 6.59095982142857  6.65838068181818 6.48716517857143  Z M 15.7492897727273 28.6300223214286  C 15.8558238636364 28.5262276785714  15.9090909090909 28.3936011904762  15.9090909090909 28.2321428571429  L 15.9090909090909 24.9107142857143  C 15.9090909090909 24.749255952381  15.8558238636364 24.6166294642857  15.7492897727273 24.5128348214286  C 15.6427556818182 24.4090401785714  15.5066287878788 24.3571428571429  15.3409090909091 24.3571428571429  L 9.65909090909091 24.3571428571429  C 9.49337121212121 24.3571428571429  9.35724431818182 24.4090401785714  9.25071022727273 24.5128348214286  C 9.14417613636364 24.6166294642857  9.09090909090909 24.749255952381  9.09090909090909 24.9107142857143  L 9.09090909090909 28.2321428571429  C 9.09090909090909 28.3936011904762  9.14417613636364 28.5262276785714  9.25071022727273 28.6300223214286  C 9.35724431818182 28.7338169642857  9.49337121212121 28.7857142857143  9.65909090909091 28.7857142857143  L 15.3409090909091 28.7857142857143  C 15.5066287878788 28.7857142857143  15.6427556818182 28.7338169642857  15.7492897727273 28.6300223214286  Z M 15.7492897727273 19.7728794642857  C 15.8558238636364 19.6690848214286  15.9090909090909 19.5364583333333  15.9090909090909 19.375  L 15.9090909090909 18.2678571428571  C 15.9090909090909 18.1063988095238  15.8558238636364 17.9737723214286  15.7492897727273 17.8699776785714  C 15.6427556818182 17.7661830357143  15.5066287878788 17.7142857142857  15.3409090909091 17.7142857142857  L 14.2045454545455 17.7142857142857  C 14.0388257575758 17.7142857142857  13.9026988636364 17.7661830357143  13.7961647727273 17.8699776785714  C 13.6896306818182 17.9737723214286  13.6363636363636 18.1063988095238  13.6363636363636 18.2678571428571  L 13.6363636363636 19.375  C 13.6363636363636 19.5364583333333  13.6896306818182 19.6690848214286  13.7961647727273 19.7728794642857  C 13.9026988636364 19.8766741071429  14.0388257575758 19.9285714285714  14.2045454545455 19.9285714285714  L 15.3409090909091 19.9285714285714  C 15.5066287878788 19.9285714285714  15.6427556818182 19.8766741071429  15.7492897727273 19.7728794642857  Z M 15.7492897727273 15.3443080357143  C 15.8558238636364 15.2405133928571  15.9090909090909 15.1078869047619  15.9090909090909 14.9464285714286  L 15.9090909090909 13.8392857142857  C 15.9090909090909 13.6778273809524  15.8558238636364 13.5452008928571  15.7492897727273 13.44140625  C 15.6427556818182 13.3376116071429  15.5066287878788 13.2857142857143  15.3409090909091 13.2857142857143  L 14.2045454545455 13.2857142857143  C 14.0388257575758 13.2857142857143  13.9026988636364 13.3376116071429  13.7961647727273 13.44140625  C 13.6896306818182 13.5452008928571  13.6363636363636 13.6778273809524  13.6363636363636 13.8392857142857  L 13.6363636363636 14.9464285714286  C 13.6363636363636 15.1078869047619  13.6896306818182 15.2405133928571  13.7961647727273 15.3443080357143  C 13.9026988636364 15.4481026785714  14.0388257575758 15.5  14.2045454545455 15.5  L 15.3409090909091 15.5  C 15.5066287878788 15.5  15.6427556818182 15.4481026785714  15.7492897727273 15.3443080357143  Z M 15.7492897727273 10.9157366071429  C 15.8558238636364 10.8119419642857  15.9090909090909 10.6793154761905  15.9090909090909 10.5178571428571  L 15.9090909090909 9.41071428571429  C 15.9090909090909 9.24925595238095  15.8558238636364 9.11662946428571  15.7492897727273 9.01283482142857  C 15.6427556818182 8.90904017857143  15.5066287878788 8.85714285714286  15.3409090909091 8.85714285714286  L 14.2045454545455 8.85714285714286  C 14.0388257575758 8.85714285714286  13.9026988636364 8.90904017857143  13.7961647727273 9.01283482142857  C 13.6896306818182 9.11662946428571  13.6363636363636 9.24925595238095  13.6363636363636 9.41071428571429  L 13.6363636363636 10.5178571428571  C 13.6363636363636 10.6793154761905  13.6896306818182 10.8119419642857  13.7961647727273 10.9157366071429  C 13.9026988636364 11.01953125  14.0388257575758 11.0714285714286  14.2045454545455 11.0714285714286  L 15.3409090909091 11.0714285714286  C 15.5066287878788 11.0714285714286  15.6427556818182 11.01953125  15.7492897727273 10.9157366071429  Z M 15.7492897727273 6.48716517857143  C 15.8558238636364 6.38337053571429  15.9090909090909 6.25074404761905  15.9090909090909 6.08928571428571  L 15.9090909090909 4.98214285714286  C 15.9090909090909 4.82068452380952  15.8558238636364 4.68805803571429  15.7492897727273 4.58426339285714  C 15.6427556818182 4.48046875  15.5066287878788 4.42857142857143  15.3409090909091 4.42857142857143  L 14.2045454545455 4.42857142857143  C 14.0388257575758 4.42857142857143  13.9026988636364 4.48046875  13.7961647727273 4.58426339285714  C 13.6896306818182 4.68805803571429  13.6363636363636 4.82068452380952  13.6363636363636 4.98214285714286  L 13.6363636363636 6.08928571428571  C 13.6363636363636 6.25074404761905  13.6896306818182 6.38337053571429  13.7961647727273 6.48716517857143  C 13.9026988636364 6.59095982142857  14.0388257575758 6.64285714285714  14.2045454545455 6.64285714285714  L 15.3409090909091 6.64285714285714  C 15.5066287878788 6.64285714285714  15.6427556818182 6.59095982142857  15.7492897727273 6.48716517857143  Z M 20.2947443181818 24.2014508928571  C 20.4012784090909 24.09765625  20.4545454545455 23.9650297619048  20.4545454545455 23.8035714285714  L 20.4545454545455 22.6964285714286  C 20.4545454545455 22.5349702380952  20.4012784090909 22.40234375  20.2947443181818 22.2985491071429  C 20.1882102272727 22.1947544642857  20.0520833333333 22.1428571428571  19.8863636363636 22.1428571428571  L 18.75 22.1428571428571  C 18.5842803030303 22.1428571428571  18.4481534090909 22.1947544642857  18.3416193181818 22.2985491071429  C 18.2350852272727 22.40234375  18.1818181818182 22.5349702380952  18.1818181818182 22.6964285714286  L 18.1818181818182 23.8035714285714  C 18.1818181818182 23.9650297619048  18.2350852272727 24.09765625  18.3416193181818 24.2014508928571  C 18.4481534090909 24.3052455357143  18.5842803030303 24.3571428571429  18.75 24.3571428571429  L 19.8863636363636 24.3571428571429  C 20.0520833333333 24.3571428571429  20.1882102272727 24.3052455357143  20.2947443181818 24.2014508928571  Z M 20.2947443181818 19.7728794642857  C 20.4012784090909 19.6690848214286  20.4545454545455 19.5364583333333  20.4545454545455 19.375  L 20.4545454545455 18.2678571428571  C 20.4545454545455 18.1063988095238  20.4012784090909 17.9737723214286  20.2947443181818 17.8699776785714  C 20.1882102272727 17.7661830357143  20.0520833333333 17.7142857142857  19.8863636363636 17.7142857142857  L 18.75 17.7142857142857  C 18.5842803030303 17.7142857142857  18.4481534090909 17.7661830357143  18.3416193181818 17.8699776785714  C 18.2350852272727 17.9737723214286  18.1818181818182 18.1063988095238  18.1818181818182 18.2678571428571  L 18.1818181818182 19.375  C 18.1818181818182 19.5364583333333  18.2350852272727 19.6690848214286  18.3416193181818 19.7728794642857  C 18.4481534090909 19.8766741071429  18.5842803030303 19.9285714285714  18.75 19.9285714285714  L 19.8863636363636 19.9285714285714  C 20.0520833333333 19.9285714285714  20.1882102272727 19.8766741071429  20.2947443181818 19.7728794642857  Z M 20.2947443181818 15.3443080357143  C 20.4012784090909 15.2405133928571  20.4545454545455 15.1078869047619  20.4545454545455 14.9464285714286  L 20.4545454545455 13.8392857142857  C 20.4545454545455 13.6778273809524  20.4012784090909 13.5452008928571  20.2947443181818 13.44140625  C 20.1882102272727 13.3376116071429  20.0520833333333 13.2857142857143  19.8863636363636 13.2857142857143  L 18.75 13.2857142857143  C 18.5842803030303 13.2857142857143  18.4481534090909 13.3376116071429  18.3416193181818 13.44140625  C 18.2350852272727 13.5452008928571  18.1818181818182 13.6778273809524  18.1818181818182 13.8392857142857  L 18.1818181818182 14.9464285714286  C 18.1818181818182 15.1078869047619  18.2350852272727 15.2405133928571  18.3416193181818 15.3443080357143  C 18.4481534090909 15.4481026785714  18.5842803030303 15.5  18.75 15.5  L 19.8863636363636 15.5  C 20.0520833333333 15.5  20.1882102272727 15.4481026785714  20.2947443181818 15.3443080357143  Z M 20.2947443181818 10.9157366071429  C 20.4012784090909 10.8119419642857  20.4545454545455 10.6793154761905  20.4545454545455 10.5178571428571  L 20.4545454545455 9.41071428571429  C 20.4545454545455 9.24925595238095  20.4012784090909 9.11662946428571  20.2947443181818 9.01283482142857  C 20.1882102272727 8.90904017857143  20.0520833333333 8.85714285714286  19.8863636363636 8.85714285714286  L 18.75 8.85714285714286  C 18.5842803030303 8.85714285714286  18.4481534090909 8.90904017857143  18.3416193181818 9.01283482142857  C 18.2350852272727 9.11662946428571  18.1818181818182 9.24925595238095  18.1818181818182 9.41071428571429  L 18.1818181818182 10.5178571428571  C 18.1818181818182 10.6793154761905  18.2350852272727 10.8119419642857  18.3416193181818 10.9157366071429  C 18.4481534090909 11.01953125  18.5842803030303 11.0714285714286  18.75 11.0714285714286  L 19.8863636363636 11.0714285714286  C 20.0520833333333 11.0714285714286  20.1882102272727 11.01953125  20.2947443181818 10.9157366071429  Z M 20.2947443181818 6.48716517857143  C 20.4012784090909 6.38337053571429  20.4545454545455 6.25074404761905  20.4545454545455 6.08928571428571  L 20.4545454545455 4.98214285714286  C 20.4545454545455 4.82068452380952  20.4012784090909 4.68805803571429  20.2947443181818 4.58426339285714  C 20.1882102272727 4.48046875  20.0520833333333 4.42857142857143  19.8863636363636 4.42857142857143  L 18.75 4.42857142857143  C 18.5842803030303 4.42857142857143  18.4481534090909 4.48046875  18.3416193181818 4.58426339285714  C 18.2350852272727 4.68805803571429  18.1818181818182 4.82068452380952  18.1818181818182 4.98214285714286  L 18.1818181818182 6.08928571428571  C 18.1818181818182 6.25074404761905  18.2350852272727 6.38337053571429  18.3416193181818 6.48716517857143  C 18.4481534090909 6.59095982142857  18.5842803030303 6.64285714285714  18.75 6.64285714285714  L 19.8863636363636 6.64285714285714  C 20.0520833333333 6.64285714285714  20.1882102272727 6.59095982142857  20.2947443181818 6.48716517857143  Z " fill-rule="nonzero" fill="#fa7298" stroke="none" transform="matrix(1 0 0 1 43 381 )" />
  </g>
</svg>