<?xml version="1.0" encoding="utf-8"?>
<svg version="1.1" xmlns:xlink="http://www.w3.org/1999/xlink" width="25px" height="36px" xmlns="http://www.w3.org/2000/svg">
  <g transform="matrix(1 0 0 1 -43 -261 )">
    <path d="M 19.82421875 22.9017857142857  C 19.94140625 23.625  20 24.4151785714286  20 25.2723214285714  C 20 26.1294642857143  19.7591145833333 26.8459821428571  19.27734375 27.421875  C 18.7955729166667 27.9977678571429  18.203125 28.2857142857143  17.5 28  L 7.5 28  C 6.796875 28.2857142857143  6.20442708333333 27.9977678571429  5.72265625 27.421875  C 5.24088541666667 26.8459821428571  5 26.1294642857143  5 25.2723214285714  C 5 24.4151785714286  5.05859375 23.625  5.17578125 22.9017857142857  C 5.29296875 22.1785714285714  5.48502604166667 21.4821428571429  5.751953125 20.8125  C 6.01888020833333 20.1428571428571  6.416015625 19.6171875  6.943359375 19.2354910714286  C 7.470703125 18.8537946428571  8.09895833333334 18.6629464285714  8.828125 18.6629464285714  C 9.86979166666667 19.6674107142857  11.09375 20.1696428571429  12.5 20.1696428571429  C 13.90625 20.1696428571429  15.1302083333333 19.6674107142857  16.171875 18.6629464285714  C 16.9010416666667 18.6629464285714  17.529296875 18.8537946428571  18.056640625 19.2354910714286  C 18.583984375 19.6171875  18.9811197916667 20.1428571428571  19.248046875 20.8125  C 19.5149739583333 21.4821428571429  19.70703125 22.1785714285714  19.82421875 22.9017857142857  Z M 15.673828125 11.6216517857143  C 16.552734375 12.5122767857143  16.9921875 13.5870535714286  16.9921875 14.8459821428571  C 16.9921875 16.1049107142857  16.552734375 17.1796875  15.673828125 18.0703125  C 14.794921875 18.9609375  13.7369791666667 19.40625  12.5 19.40625  C 11.2630208333333 19.40625  10.205078125 18.9609375  9.326171875 18.0703125  C 8.447265625 17.1796875  8.0078125 16.1049107142857  8.0078125 14.8459821428571  C 8.0078125 13.5870535714286  8.447265625 12.5122767857143  9.326171875 11.6216517857143  C 10.205078125 10.7310267857143  11.2630208333333 10.2857142857143  12.5 10.2857142857143  C 13.7369791666667 10.2857142857143  14.794921875 10.7310267857143  15.673828125 11.6216517857143  Z M 22.314453125 33.2377232142857  C 22.4381510416667 33.1104910714286  22.5 32.9598214285714  22.5 32.7857142857143  L 22.5 5.14285714285714  L 2.5 5.14285714285714  L 2.5 32.7857142857143  C 2.5 32.9598214285714  2.56184895833333 33.1104910714286  2.685546875 33.2377232142857  C 2.80924479166667 33.3649553571429  2.95572916666667 33.4285714285714  3.125 33  L 21.875 33  C 22.0442708333333 33.4285714285714  22.1907552083333 33.3649553571429  22.314453125 33.2377232142857  Z M 24.08203125 0.94419642857143  C 24.6940104166667 1.57366071428571  25 2.33035714285714  25 3.21428571428571  L 25 32.7857142857143  C 25 33.6696428571429  24.6940104166667 34.4263392857143  24.08203125 35.0558035714286  C 23.4700520833333 35.6852678571429  22.734375 36  21.875 36  L 3.125 36  C 2.265625 36  1.52994791666667 35.6852678571429  0.91796875 35.0558035714286  C 0.305989583333333 34.4263392857143  0 33.6696428571429  0 32.7857142857143  L 0 3.21428571428571  C 0 2.33035714285714  0.305989583333333 1.57366071428571  0.91796875 0.94419642857143  C 1.52994791666667 0.314732142857143  2.265625 0  3.125 0  L 10 0  L 10 1.92857142857143  C 10 2.11607142857143  10.05859375 2.27008928571429  10.17578125 2.390625  C 10.29296875 2.51116071428571  10.4427083333333 2.57142857142857  10.625 2.57142857142857  L 14.375 2.57142857142857  C 14.5572916666667 2.57142857142857  14.70703125 2.51116071428571  14.82421875 2.390625  C 14.94140625 2.27008928571429  15 2.11607142857143  15 1.92857142857143  L 15 0  L 21.875 0  C 22.734375 0  23.4700520833333 0.314732142857143  24.08203125 0.94419642857143  Z " fill-rule="nonzero" fill="#fa7298" stroke="none" transform="matrix(1 0 0 1 43 261 )" />
  </g>
</svg>