<?xml version="1.0" encoding="utf-8"?>
<svg version="1.1" xmlns:xlink="http://www.w3.org/1999/xlink" width="30px" height="26px" xmlns="http://www.w3.org/2000/svg">
  <g transform="matrix(1 0 0 1 -43 -503 )">
    <path d="M 3.96763392857143 21.3450520833333  C 4.1796875 21.1306423611111  4.28571428571429 20.8767361111111  4.28571428571429 20.5833333333333  C 4.28571428571429 20.2899305555556  4.1796875 20.0360243055556  3.96763392857143 19.8216145833333  C 3.75558035714286 19.6072048611111  3.50446428571429 19.5  3.21428571428571 19.5  C 2.92410714285714 19.5  2.67299107142857 19.6072048611111  2.4609375 19.8216145833333  C 2.24888392857143 20.0360243055556  2.14285714285714 20.2899305555556  2.14285714285714 20.5833333333333  C 2.14285714285714 20.8767361111111  2.24888392857143 21.1306423611111  2.4609375 21.3450520833333  C 2.67299107142857 21.5594618055556  2.92410714285714 21.6666666666667  3.21428571428571 21.6666666666667  C 3.50446428571429 21.6666666666667  3.75558035714286 21.5594618055556  3.96763392857143 21.3450520833333  Z M 27.2209821428571 12.3567708333333  C 27.6450892857143 11.9279513888889  27.8571428571429 11.4201388888889  27.8571428571429 10.8333333333333  C 27.8571428571429 10.2578125  27.6395089285714 9.75282118055555  27.2042410714286 9.318359375  C 26.7689732142857 8.88389756944444  26.2723214285714 8.66666666666667  25.7142857142857 8.66666666666667  L 16.0714285714286 8.66666666666667  C 16.0714285714286 8.44097222222222  16.1551339285714 8.16731770833333  16.3225446428571 7.845703125  C 16.4899553571429 7.52408854166667  16.6741071428571 7.21375868055555  16.875 6.91471354166667  C 17.0758928571429 6.61566840277778  17.2600446428571 6.23198784722222  17.4274553571429 5.763671875  C 17.5948660714286 5.29535590277778  17.6785714285714 4.81857638888889  17.6785714285714 4.33333333333333  C 17.6785714285714 3.57725694444444  17.4302455357143 3.02712673611111  16.93359375 2.68294270833333  C 16.4369419642857 2.33875868055555  15.7924107142857 2.16666666666667  15 2.16666666666667  C 14.7321428571429 2.16666666666667  14.2299107142857 2.95095486111111  13.4933035714286 4.51953125  C 13.2254464285714 5.01605902777778  13.0189732142857 5.3828125  12.8738839285714 5.61979166666667  C 12.4274553571429 6.34201388888889  11.8024553571429 7.16015625  10.9988839285714 8.07421875  C 10.2064732142857 8.98828125  9.64285714285714 9.58637152777778  9.30803571428572 9.86848958333333  C 8.53794642857143 10.51171875  7.75669642857143 10.8333333333333  6.96428571428571 10.8333333333333  L 7 10.8333333333333  L 7 21.6666666666667  L 6.96428571428571 21.6666666666667  C 7.76785714285714 21.6666666666667  8.69977678571429 21.8472222222222  9.76004464285714 22.2083333333333  C 10.8203125 22.5694444444444  11.9001116071429 22.9305555555556  12.9994419642857 23.2916666666667  C 14.0987723214286 23.6527777777778  15.1004464285714 23.8333333333333  16.0044642857143 23.8333333333333  C 18.1138392857143 23.8333333333333  19.1685267857143 22.8910590277778  19.1685267857143 21.0065104166667  C 19.1685267857143 20.7131076388889  19.140625 20.3971354166667  19.0848214285714 20.05859375  C 19.4196428571429 19.8780381944444  19.6847098214286 19.5818142361111  19.8800223214286 19.169921875  C 20.0753348214286 18.7580295138889  20.1729910714286 18.3433159722222  20.1729910714286 17.92578125  C 20.1729910714286 17.5082465277778  20.0725446428571 17.1189236111111  19.8716517857143 16.7578125  C 20.4631696428571 16.1935763888889  20.7589285714286 15.5221354166667  20.7589285714286 14.7434895833333  C 20.7589285714286 14.4613715277778  20.703125 14.1482204861111  20.5915178571429 13.8040364583333  C 20.4799107142857 13.4598524305556  20.3404017857143 13.1918402777778  20.1729910714286 13  L 25.7142857142857 13  C 26.2946428571429 13  26.796875 12.7855902777778  27.2209821428571 12.3567708333333  Z M 28.7276785714286 7.78645833333333  C 29.5758928571429 8.64409722222222  30 9.65407986111111  30 10.81640625  C 30 12.0013020833333  29.5786830357143 13.0225694444444  28.7360491071429 13.8802083333333  C 27.8934151785714 14.7378472222222  26.8861607142857 15.1666666666667  25.7142857142857 15.1666666666667  L 22.8850446428571 15.1666666666667  C 22.8404017857143 15.8663194444444  22.6339285714286 16.5377604166667  22.265625 17.1809895833333  C 22.2991071428571 17.41796875  22.3158482142857 17.6605902777778  22.3158482142857 17.9088541666667  C 22.3158482142857 19.0486111111111  21.9810267857143 20.0529513888889  21.3113839285714 20.921875  C 21.3225446428571 22.4904513888889  20.8482142857143 23.7289496527778  19.8883928571429 24.6373697916667  C 18.9285714285714 25.5457899305556  17.6618303571429 26  16.0881696428571 26  C 14.6037946428571 26  12.8069196428571 25.6106770833333  10.6975446428571 24.83203125  C 8.8671875 24.1662326388889  7.62276785714286 23.8333333333333  6.96428571428571 23.8333333333333  L 2.14285714285714 23.8333333333333  C 1.55133928571429 23.8333333333333  1.04631696428571 23.6217447916667  0.627790178571428 23.1985677083333  C 0.209263392857143 22.775390625  0 22.2647569444444  0 21.6666666666667  L 0 10.8333333333333  C 0 10.2352430555556  0.209263392857143 9.724609375  0.627790178571428 9.30143229166667  C 1.04631696428571 8.87825520833333  1.55133928571429 8.66666666666667  2.14285714285714 8.66666666666667  L 6.96428571428571 8.66666666666667  C 7.07589285714286 8.66666666666667  7.19587053571429 8.64127604166667  7.32421875 8.59049479166667  C 7.45256696428571 8.53971354166667  7.58370535714286 8.46072048611111  7.71763392857143 8.353515625  C 7.8515625 8.24631076388889  7.97712053571429 8.14474826388889  8.09430803571428 8.048828125  C 8.21149553571428 7.95290798611111  8.34542410714286 7.82595486111111  8.49609375 7.66796875  C 8.64676339285714 7.50998263888889  8.76116071428572 7.388671875  8.83928571428572 7.30403645833333  C 8.91741071428572 7.21940104166667  9.0234375 7.09809027777778  9.15736607142857 6.94010416666667  C 9.29129464285714 6.78211805555555  9.36941964285714 6.68619791666667  9.39174107142857 6.65234375  C 10.1171875 5.81727430555555  10.6752232142857 5.08940972222222  11.0658482142857 4.46875  C 11.2109375 4.23177083333333  11.3950892857143 3.88194444444444  11.6183035714286 3.41927083333333  C 11.8415178571429 2.95659722222222  12.0479910714286 2.55034722222222  12.2377232142857 2.20052083333333  C 12.4274553571429 1.85069444444444  12.6534598214286 1.49522569444444  12.9157366071429 1.13411458333333  C 13.1780133928571 0.77300347222222  13.4849330357143 0.49370659722222  13.8364955357143 0.296223958333332  C 14.1880580357143 0.0987413194444422  14.5758928571429 0  15 0  C 16.3950892857143 0  17.5474330357143 0.378038194444442  18.45703125 1.13411458333333  C 19.3666294642857 1.89019097222222  19.8214285714286 2.95659722222222  19.8214285714286 4.33333333333333  C 19.8214285714286 5.10069444444444  19.6986607142857 5.82291666666667  19.453125 6.5  L 25.7142857142857 6.5  C 26.875 6.5  27.8794642857143 6.92881944444444  28.7276785714286 7.78645833333333  Z " fill-rule="nonzero" fill="#fa7298" stroke="none" transform="matrix(1 0 0 1 43 503 )" />
  </g>
</svg>