<?xml version="1.0" encoding="utf-8"?>
<svg version="1.1" xmlns:xlink="http://www.w3.org/1999/xlink" width="30px" height="24px" xmlns="http://www.w3.org/2000/svg">
  <g transform="matrix(1 0 0 1 -43 -326 )">
    <path d="M 2.5 0  L 27.5 0  C 28.1875 0  28.7760416666667 0.244791666666664  29.265625 0.734375000000001  C 29.7552083333333 1.22395833333333  30 1.8125  30 2.5  L 30 21.5  C 30 22.1875  29.7552083333333 22.7760416666667  29.265625 23.265625  C 28.7760416666667 23.7552083333333  28.1875 24  27.5 24  L 2.5 24  C 1.8125 24  1.22395833333333 23.7552083333333  0.734375 23.265625  C 0.244791666666667 22.7760416666667  0 22.1875  0 21.5  L 0 2.5  C 0 1.8125  0.244791666666667 1.22395833333333  0.734375 0.734375000000001  C 1.22395833333333 0.244791666666664  1.8125 0  2.5 0  Z M 27.5 2  L 2.5 2  C 2.36458333333333 2  2.24739583333333 2.04947916666666  2.1484375 2.1484375  C 2.04947916666667 2.24739583333333  2 2.36458333333333  2 2.5  L 2 6  L 28 6  L 28 2.5  C 28 2.36458333333333  27.9505208333333 2.24739583333333  27.8515625 2.1484375  C 27.7526041666667 2.04947916666666  27.6354166666667 2  27.5 2  Z M 2.5 22  L 27.5 22  C 27.6354166666667 22  27.7526041666667 21.9505208333333  27.8515625 21.8515625  C 27.9505208333333 21.7526041666667  28 21.6354166666667  28 21.5  L 28 12  L 2 12  L 2 21.5  C 2 21.6354166666667  2.04947916666667 21.7526041666667  2.1484375 21.8515625  C 2.24739583333333 21.9505208333333  2.36458333333333 22  2.5 22  Z M 8 20  L 4 20  L 4 18  L 8 18  L 8 20  Z M 16 20  L 10 20  L 10 18  L 16 18  L 16 20  Z " fill-rule="nonzero" fill="#fa7298" stroke="none" transform="matrix(1 0 0 1 43 326 )" />
  </g>
</svg>