<?xml version="1.0" encoding="utf-8"?>
<svg version="1.1" xmlns:xlink="http://www.w3.org/1999/xlink" width="8px" height="20px" xmlns="http://www.w3.org/2000/svg">
  <g transform="matrix(1 0 0 1 -333 -269 )">
    <path d="M 7.86254295532646 9.53907815631263  C 7.95418098510882 9.67267869071476  8 9.82631930527722  8 10  C 8 10.1736806947228  7.95418098510882 10.3273213092852  7.86254295532646 10.4609218436874  L 1.45704467353952 19.7995991983968  C 1.36540664375716 19.9331997327989  1.26002290950745 20  1.14089347079038 20  C 1.02176403207331 20  0.916380297823597 19.9331997327989  0.824742268041237 19.7995991983968  L 0.13745704467354 18.7975951903808  C 0.0458190148911799 18.6639946559786  0 18.5103540414162  0 18.3366733466934  C 0 18.1629926519706  0.0458190148911799 18.0093520374081  0.13745704467354 17.875751503006  L 5.53951890034364 10  L 0.13745704467354 2.12424849699399  C 0.0458190148911799 1.99064796259185  0 1.83700734802939  0 1.66332665330661  C 0 1.48964595858383  0.0458190148911799 1.33600534402137  0.13745704467354 1.20240480961924  L 0.824742268041237 0.200400801603207  C 0.916380297823597 0.0668002672010681  1.02176403207331 0  1.14089347079038 0  C 1.26002290950745 0  1.36540664375716 0.0668002672010681  1.45704467353952 0.200400801603207  L 7.86254295532646 9.53907815631263  Z " fill-rule="nonzero" fill="#d7d7d7" stroke="none" transform="matrix(1 0 0 1 333 269 )" />
  </g>
</svg>