<?xml version="1.0" encoding="utf-8"?>
<svg version="1.1" xmlns:xlink="http://www.w3.org/1999/xlink" width="20px" height="22px" xmlns="http://www.w3.org/2000/svg">
  <g transform="matrix(1 0 0 1 -303 -10 )">
    <path d="M 13.8427884615385 2.07886904761906  C 14.9706730769231 3.11557539682541  15.5346153846154 4.37053571428573  15.5346153846154 5.84375  C 15.5346153846154 7.30332341269843  14.9706730769231 8.55146329365082  13.8427884615385 9.58816964285718  C 12.7149038461539 10.6248759920635  11.3621794871795 11.1432291666667  9.78461538461538 11.1432291666667  C 8.20705128205129 11.1432291666667  6.85432692307693 10.6248759920635  5.72644230769231 9.58816964285718  C 4.59855769230769 8.55146329365082  4.03461538461538 7.30332341269843  4.03461538461538 5.84375  C 4.03461538461538 4.37053571428573  4.59855769230769 3.11557539682541  5.72644230769231 2.07886904761906  C 6.85432692307693 1.04216269841271  8.20705128205129 0.523809523809488  9.78461538461538 0.523809523809488  C 11.3621794871795 0.523809523809488  12.7149038461539 1.04216269841271  13.8427884615385 2.07886904761906  Z M 13.7653846153846 10.7442336309524  C 14.1339743589744 10.5328000992064  14.3698717948718 10.3998015873016  14.4730769230769 10.3452380952381  C 15.1512820512821 10.3452380952381  15.7594551282051 10.461185515873  16.2975961538461 10.6930803571428  C 16.8357371794872 10.9249751984127  17.2780448717949 11.2489459325397  17.6245192307692 11.6649925595238  C 17.9709935897436 12.0810391865079  18.2621794871795 12.5380084325397  18.4980769230769 13.0359002976191  C 18.7339743589744 13.5337921626984  18.9108974358974 14.0862475198413  19.0288461538461 14.6932663690476  C 19.1467948717949 15.300285218254  19.2315705128205 15.8629712301587  19.2831730769231 16.3813244047619  C 19.3347756410256 16.8996775793651  19.3605769230769 17.4384920634921  19.3605769230769 17.9977678571428  C 19.3605769230769 18.9117063492064  19.069391025641 19.7199280753969  18.4870192307692 20.4224330357143  C 17.9046474358974 21.1249379960318  17.1269230769231 21.4761904761905  16.1538461538461 21.4761904761905  L 3.41538461538462 21.4761904761905  C 2.44230769230769 21.4761904761905  1.66458333333333 21.1249379960318  1.08221153846155 20.4224330357143  C 0.499839743589746 19.7199280753969  0.208653846153857 18.9117063492064  0.208653846153857 17.9977678571428  C 0.208653846153857 17.3430059523809  0.241826923076928 16.7052951388889  0.308173076923072 16.0846354166667  C 0.374519230769238 15.4639756944445  0.510897435897437 14.7921626984127  0.717307692307691 14.0691964285715  C 0.923717948717945 13.3462301587302  1.19278846153845 12.722160218254  1.52451923076924 12.1969866071428  C 1.85625 11.6718129960318  2.32067307692307 11.2318948412698  2.91778846153845 10.8772321428572  C 3.51490384615386 10.5225694444445  4.20416666666667 10.3452380952381  4.98557692307693 10.3452380952381  L 5.09615384615386 10.3452380952381  C 5.19935897435898 10.3998015873016  5.43525641025642 10.5328000992064  5.80384615384614 10.7442336309524  C 6.17243589743589 10.9556671626984  6.43413461538462 11.0988963293651  6.58894230769231 11.1739211309524  C 6.74375 11.2489459325397  6.98701923076924 11.3648933531746  7.31875 11.5217633928572  C 7.65048076923076 11.6786334325397  7.92323717948718 11.7877604166667  8.13701923076924 11.8491443452381  C 8.35080128205129 11.9105282738095  8.60881410256411 11.9719122023809  8.91105769230769 12.0332961309524  C 9.21330128205129 12.0946800595238  9.50448717948718 12.1253720238095  9.78461538461538 12.1253720238095  C 10.0647435897436 12.1253720238095  10.3559294871795 12.0946800595238  10.6581730769231 12.0332961309524  C 10.9604166666667 11.9719122023809  11.2184294871795 11.9105282738095  11.4322115384615 11.8491443452381  C 11.6459935897436 11.7877604166667  11.91875 11.6786334325397  12.2504807692308 11.5217633928572  C 12.5822115384615 11.3648933531746  12.8254807692308 11.2489459325397  12.9802884615385 11.1739211309524  C 13.1350961538461 11.0988963293651  13.3967948717949 10.9556671626984  13.7653846153846 10.7442336309524  Z " fill-rule="nonzero" fill="#fa7298" stroke="none" transform="matrix(1 0 0 1 303 10 )" />
  </g>
</svg>