<?xml version="1.0" encoding="utf-8"?>
<svg version="1.1" xmlns:xlink="http://www.w3.org/1999/xlink" width="18px" height="19px" xmlns="http://www.w3.org/2000/svg">
  <g transform="matrix(1 0 0 1 -110 -103 )">
    <path d="M 11.0390625 11.65234375  C 11.9873798076923 10.6513421474359  12.4615384615385 9.44671474358972  12.4615384615385 8.03846153846155  C 12.4615384615385 6.63020833333331  11.9873798076923 5.42558092948718  11.0390625 4.42457932692309  C 10.0907451923077 3.42357772435895  8.94951923076923 2.92307692307691  7.61538461538458 2.92307692307691  C 6.28125 2.92307692307691  5.14002403846155 3.42357772435895  4.19170673076923 4.42457932692309  C 3.24338942307691 5.42558092948718  2.76923076923077 6.63020833333331  2.76923076923077 8.03846153846155  C 2.76923076923077 9.44671474358972  3.24338942307691 10.6513421474359  4.19170673076923 11.65234375  C 5.14002403846155 12.6533453525641  6.28125 13.1538461538462  7.61538461538458 13.1538461538462  C 8.94951923076923 13.1538461538462  10.0907451923077 12.6533453525641  11.0390625 11.65234375  Z M 17.5997596153846 16.5108173076923  C 17.8665865384615 16.792467948718  18 17.135016025641  18 17.5384615384615  C 18 17.9342948717949  17.8629807692308 18.276842948718  17.5889423076923 18.5661057692308  C 17.3149038461539 18.8553685897436  16.9903846153846 19  16.6153846153846 19  C 16.2259615384615 19  15.9014423076923 18.8553685897436  15.6418269230769 18.5661057692308  L 11.9314903846154 14.6610576923077  C 10.640625 15.604967948718  9.20192307692309 16.0769230769231  7.61538461538458 16.0769230769231  C 6.58413461538464 16.0769230769231  5.59795673076923 15.8656850961538  4.65685096153851 15.4432091346154  C 3.71574519230774 15.0207331730769  2.90444711538458 14.4498197115385  2.22295673076923 13.73046875  C 1.54146634615381 13.0111177884615  1.00060096153851 12.1547475961538  0.600360576923094 11.1613581730769  C 0.200120192307736 10.16796875  0 9.12700320512818  0 8.03846153846155  C 0 6.94991987179486  0.200120192307736 5.90895432692309  0.600360576923094 4.91556490384619  C 1.00060096153851 3.92217548076923  1.54146634615381 3.06580528846155  2.22295673076923 2.34645432692309  C 2.90444711538458 1.62710336538458  3.71574519230774 1.05618990384619  4.65685096153851 0.633713942307679  C 5.59795673076923 0.211237980769226  6.58413461538464 0  7.61538461538458 0  C 8.64663461538458 0  9.6328125 0.211237980769226  10.5739182692308 0.633713942307679  C 11.5150240384615 1.05618990384619  12.3263221153846 1.62710336538458  13.0078125 2.34645432692309  C 13.6893028846154 3.06580528846155  14.2301682692308 3.92217548076923  14.6304086538462 4.91556490384619  C 15.0306490384615 5.90895432692309  15.2307692307692 6.94991987179486  15.2307692307692 8.03846153846155  C 15.2307692307692 9.71314102564099  14.7836538461539 11.2317708333333  13.8894230769231 12.5943509615385  L 17.5997596153846 16.5108173076923  Z " fill-rule="nonzero" fill="#999999" stroke="none" transform="matrix(1 0 0 1 110 103 )" />
  </g>
</svg>