<?xml version="1.0" encoding="utf-8"?>
<svg version="1.1" xmlns:xlink="http://www.w3.org/1999/xlink" width="23px" height="21px" xmlns="http://www.w3.org/2000/svg">
  <g transform="matrix(1 0 0 1 -321 -104 )">
    <path d="M 9.06223958333328 9.54717548076923  C 9.73706597222224 8.83623798076923  10.5496527777777 8.48076923076923  11.5 8.48076923076923  C 12.4503472222223 8.48076923076923  13.2629340277778 8.83623798076923  13.9377604166667 9.54717548076923  C 14.6125868055556 10.2581129807692  14.95 11.1141826923077  14.95 12.1153846153846  C 14.95 13.1165865384615  14.6125868055556 13.97265625  13.9377604166667 14.68359375  C 13.2629340277778 15.39453125  12.4503472222223 15.75  11.5 15.75  C 10.5496527777777 15.75  9.73706597222224 15.39453125  9.06223958333328 14.68359375  C 8.38741319444443 13.97265625  8.04999999999995 13.1165865384615  8.04999999999995 12.1153846153846  C 8.04999999999995 11.1141826923077  8.38741319444443 10.2581129807692  9.06223958333328 9.54717548076923  Z M 17.25 3.23076923076923  L 19.9333333333333 3.23076923076923  C 20.7798611111111 3.23076923076923  21.5026041666666 3.54627403846155  22.1015625 4.17728365384613  C 22.7005208333334 4.80829326923077  23 5.56971153846155  23 6.46153846153845  L 23 17.7692307692308  C 23 18.6610576923077  22.7005208333334 19.4224759615385  22.1015625 20.053485576923  C 21.5026041666666 20.6844951923077  20.7798611111111 21  19.9333333333333 21  L 3.06666666666672 21  C 2.22013888888887 21  1.49739583333337 20.6844951923077  0.8984375 20.053485576923  C 0.299479166666629 19.4224759615385  0 18.6610576923077  0 17.7692307692308  L 0 6.46153846153845  C 0 5.56971153846155  0.299479166666629 4.80829326923077  0.8984375 4.17728365384613  C 1.49739583333337 3.54627403846155  2.22013888888887 3.23076923076923  3.06666666666672 3.23076923076923  L 5.75 3.23076923076923  L 6.36093750000009 1.51442307692304  C 6.51267361111115 1.10216346153845  6.79019097222226 0.746694711538453  7.1934895833333 0.448016826923038  C 7.59678819444446 0.149338942307679  8.01006944444441 0  8.43333333333328 0  L 14.5666666666667 0  C 14.9899305555556 0  15.4032118055555 0.149338942307679  15.8065104166667 0.448016826923038  C 16.2098090277777 0.746694711538453  16.4873263888888 1.10216346153845  16.6390624999999 1.51442307692304  L 17.25 3.23076923076923  Z M 7.70859375000009 16.1096754807692  C 8.75876736111115 17.216045673077  10.0225694444445 17.7692307692308  11.5 17.7692307692308  C 12.9774305555555 17.7692307692308  14.2412326388888 17.216045673077  15.2914062499999 16.1096754807692  C 16.3415798611112 15.0033052884615  16.8666666666667 13.671875  16.8666666666667 12.1153846153846  C 16.8666666666667 10.5588942307692  16.3415798611112 9.22746394230768  15.2914062499999 8.12109375  C 14.2412326388888 7.01472355769232  12.9774305555555 6.46153846153845  11.5 6.46153846153845  C 10.0225694444445 6.46153846153845  8.75876736111115 7.01472355769232  7.70859375000009 8.12109375  C 6.6584201388888 9.22746394230768  6.13333333333333 10.5588942307692  6.13333333333333 12.1153846153846  C 6.13333333333333 13.671875  6.6584201388888 15.0033052884615  7.70859375000009 16.1096754807692  Z " fill-rule="nonzero" fill="#999999" stroke="none" transform="matrix(1 0 0 1 321 104 )" />
  </g>
</svg>