<?xml version="1.0" encoding="utf-8"?>
<svg version="1.1" xmlns:xlink="http://www.w3.org/1999/xlink" width="35px" height="41px" xmlns="http://www.w3.org/2000/svg">
  <g transform="matrix(1 0 0 1 -27 -154 )">
    <path d="M 16 0  L 16 14.35  L 12 14.35  L 12 0  L 8 0  L 8 14.35  L 4 14.35  L 4 0  L 0 0  L 0 14.35  C 0 18.70625  3.22777777777793 22.23225  7.29166666666674 22.49875  L 7.29166666666674 41  L 12.1527777777777 41  L 12.1527777777777 22.49875  C 16.2166666666667 22.23225  19.4444444444446 18.70625  19 14.35  L 19 0  L 16 0  Z M 35 0  C 29.6333333333332 0  25.2777777777777 4.59199999999998  25 8.19999999999999  L 25 24.6  L 30 24.6  L 30 41  L 35 41  L 35 0  Z " fill-rule="nonzero" fill="#fdf002" stroke="none" transform="matrix(1 0 0 1 27 154 )" />
  </g>
</svg>