<?xml version="1.0" encoding="utf-8"?>
<svg version="1.1" xmlns:xlink="http://www.w3.org/1999/xlink" width="45px" height="39px" xmlns="http://www.w3.org/2000/svg">
  <g transform="matrix(1 0 0 1 -213 -235 )">
    <path d="M 38.5315985130111 22.2813717848792  C 38.550185873606 22.3219017926735  38.5594795539033 22.3826968043647  38 22.4637568199532  L 38 37.0545596258769  C 38.5594795539033 37.5814497272019  38.3828996282529 38.037412314887  38.0297397769516 38.4224473889322  C 37.6765799256506 38.8074824629774  37.2583643122676 39  36.7750929368029 39  L 26 39  L 26 27.3273577552611  L 19 27.3273577552611  L 19 39  L 8.22490706319707 39  C 7.74163568773236 39  7.32342007434943 38.8074824629774  6.9702602230484 38.4224473889322  C 6.61710037174726 38.037412314887  6.44052044609668 37.5814497272019  7 37.0545596258769  L 7 22.4637568199532  C 6.44052044609668 22.4434918160561  6.44516728624535 22.4130943102105  6.45446096654268 22.3725643024163  C 6.46375464684024 22.332034294622  6.46840148698891 22.3016367887764  6.46840148698891 22.2813717848792  L 22.5 7.87295401402963  L 38.5315985130111 22.2813717848792  Z M 44.9721189591078 19.6519875292285  C 44.9907063197027 19.9255650818394  44.9256505576208 20.1636788776306  44.7769516728624 20.3663289166017  L 43.0483271375465 22.6157443491816  C 42.8996282527881 22.7981293842556  42.7044609665428 22.9095869056898  42.4628252788104 22.950116913484  L 42.3791821561339 22.950116913484  C 42.1375464684015 22.950116913484  41.9423791821562 22.8791893998441  41.7936802973978 22.7373343725644  L 22.5 5.19797349961021  L 3.20631970260217 22.7373343725644  C 2.98327137546471 22.8994544037412  2.76022304832713 22.9703819173811  2.53717472118956 22.950116913484  C 2.2955390334572 22.9095869056898  2.10037174721185 22.7981293842556  1.95167286245351 22.6157443491816  L 0.223048327137576 20.3663289166017  C 0.0743494423792299 20.1636788776306  0.00929368029733268 19.9255650818394  0.0278810408922254 19.6519875292285  C 0.0464684014870045 19.3784099766173  0.148698884758346 19.1605611847233  0.334572490706364 18.9984411535463  L 20.3810408921933 0.790335151987506  C 20.9758364312268 0.263445050662426  21.682156133829 0  22.5 0  C 23.317843866171 0  24.0241635687731 0.263445050662426  24.6189591078067 0.790335151987506  L 31.4219330855019 6.99142634450504  L 31.4219330855019 1.06391270459864  C 31.4219330855019 0.78020265003903  31.5055762081785 0.547155105222089  31.6728624535316 0.364770070148154  C 31.8401486988848 0.182385035074049  32.0539033457248 0.0911925175370243  32.314126394052 0.0911925175370243  L 37.6672862453531 0.0911925175370243  C 37.9275092936803 0.0911925175370243  38.1412639405204 0.182385035074049  38.3085501858736 0.364770070148154  C 38.4758364312269 0.547155105222089  38.5594795539033 0.78020265003903  38 1.06391270459864  L 38 13.4660950896337  L 44.6654275092936 18.9984411535463  C 44.8513011152417 19.1605611847233  44.953531598513 19.3784099766173  44.9721189591078 19.6519875292285  Z " fill-rule="nonzero" fill="#663300" stroke="none" transform="matrix(1 0 0 1 213 235 )" />
  </g>
</svg>