<?xml version="1.0" encoding="utf-8"?>
<svg version="1.1" xmlns:xlink="http://www.w3.org/1999/xlink" width="42px" height="38px" xmlns="http://www.w3.org/2000/svg">
  <g transform="matrix(1 0 0 1 -308 -238 )">
    <path d="M 15.1947115384615 32.1164772727273  C 15.8341346153846 32.8001893939394  16.153846153846 33.6098484848484  16.153846153846 34.5454545454546  C 16.153846153846 35.4810606060606  15.8341346153846 36.2907196969697  15.1947115384615 36.9744318181818  C 14.5552884615385 37.6581439393939  13.798076923077 38  12.9230769230768 38  C 12.0480769230769 38  11.2908653846152 37.6581439393939  10.6514423076922 36.9744318181818  C 10.0120192307694 36.2907196969697  9.69230769230785 35.4810606060606  9.69230769230785 34.5454545454546  C 9.69230769230785 33.6098484848484  10.0120192307694 32.8001893939394  10.6514423076922 32.1164772727273  C 11.2908653846152 31.4327651515151  12.0480769230769 31.0909090909091  12.9230769230768 31.0909090909091  C 13.798076923077 31.0909090909091  14.5552884615385 31.4327651515151  15.1947115384615 32.1164772727273  Z M 37.810096153846 32.1164772727273  C 38.4495192307692 32.8001893939394  38.7692307692308 33.6098484848484  38.7692307692308 34.5454545454546  C 38.7692307692308 35.4810606060606  38.4495192307692 36.2907196969697  37.810096153846 36.9744318181818  C 37.1706730769231 37.6581439393939  36.4134615384617 38  35.5384615384615 38  C 34.6634615384615 38  33.90625 37.6581439393939  33.2668269230768 36.9744318181818  C 32.6274038461538 36.2907196969697  32.3076923076922 35.4810606060606  32.3076923076922 34.5454545454546  C 32.3076923076922 33.6098484848484  32.6274038461538 32.8001893939394  33.2668269230768 32.1164772727273  C 33.90625 31.4327651515151  34.6634615384615 31.0909090909091  35.5384615384615 31.0909090909091  C 36.4134615384617 31.0909090909091  37.1706730769231 31.4327651515151  37.810096153846 32.1164772727273  Z M 41.5204326923079 3.96732954545456  C 41.8401442307691 4.30918560606062  42 4.71401515151518  42 5.18181818181824  L 42 19  C 42 19.4318181818182  41.8611778846154 19.8141571969697  41.583533653846 20.1470170454546  C 41.3058894230768 20.4798768939394  40.9651442307692 20.6732954545454  40.5612980769232 20.7272727272727  L 14.2103365384615 24.0198863636364  C 14.4290865384617 25.0994318181818  14.5384615384615 25.7291666666667  14.5384615384615 25.9090909090909  C 14.5384615384615 26.1969696969697  14.3365384615385 26.7727272727273  13.9326923076922 27  L 37.153846153846 27  C 37.5913461538462 27.6363636363636  37.9699519230769 27.8072916666667  38.2896634615385 28.1491477272727  C 38.609375 28.4910037878788  38.7692307692308 28.8958333333333  38.7692307692308 29.3636363636364  C 38.7692307692308 29.8314393939394  38.609375 30.2362689393939  38.2896634615385 30.578125  C 37.9699519230769 30.9199810606061  37.5913461538462 31.0909090909091  37.153846153846 31  L 11.3076923076922 31  C 10.8701923076923 31.0909090909091  10.4915865384617 30.9199810606061  10.171875 30.578125  C 9.85216346153834 30.2362689393939  9.69230769230785 29.8314393939394  9.69230769230785 29.3636363636364  C 9.69230769230785 29.1657196969697  9.75961538461536 28.8823390151516  9.89423076923083 28.5134943181818  C 10.0288461538462 28.1446496212121  10.1634615384617 27.8207859848484  10.2980769230768 27.5419034090909  C 10.4326923076924 27.2630208333333  10.6135817307692 26.9031723484849  10.8407451923078 26.4623579545454  C 11.067908653846 26.0215435606061  11.1983173076923 25.7561553030303  11.231971153846 25.6661931818182  L 6.76442307692321 3.45454545454544  L 1.61538461538464 3.45454545454544  C 1.17788461538476 3.45454545454544  0.799278846153811 3.28361742424238  0.47956730769215 2.94176136363637  C 0.159855769230603 2.59990530303025  0 2.19507575757581  0 1.72727272727269  C 0 1.25946969696975  0.159855769230603 0.854640151515184  0.47956730769215 0.512784090909065  C 0.799278846153811 0.170928030303003  1.17788461538476 0  1.61538461538464 0  L 8.07692307692321 0  C 8.34615384615381 0  8.5859375 0.0584753787879322  8.79627403846155 0.175426136363626  C 9.00661057692298 0.292376893939377  9.17067307692298 0.431818181818244  9.28846153846155 0.59375  C 9.40625 0.755681818181756  9.515625 0.976089015151501  9.61658653846155 1.25497159090907  C 9.71754807692321 1.53385416666669  9.78485576923083 1.76775568181824  9.81850961538464 1.95667613636363  C 9.85216346153834 2.14559659090907  9.8984375 2.41098484848482  9.95733173076917 2.75284090909093  C 10.0162259615383 3.094696969697  10.0540865384615 3.3285984848485  10.0709134615385 4  L 40.3846153846154 4  C 40.8221153846152 3.45454545454544  41.2007211538462 3.6254734848485  41.5204326923079 3.96732954545456  Z " fill-rule="nonzero" fill="#3399ff" stroke="none" transform="matrix(1 0 0 1 308 238 )" />
  </g>
</svg>