<?xml version="1.0" encoding="utf-8"?>
<svg version="1.1" xmlns:xlink="http://www.w3.org/1999/xlink" width="49px" height="46px" xmlns="http://www.w3.org/2000/svg">
  <g transform="matrix(1 0 0 1 -205 -98 )">
    <path d="M 41.9566294919454 26.2805923616524  C 41.976869062371 26.3283969862303  41.9869888475836 26.4001039230969  42 26.4957131722525  L 42 43.705378020265  C 41.9869888475836 44.3268381397766  41.794712928542 44.864640166277  41.4101610904584 45.3187840997662  C 41.0256092523751 45.7729280332554  40.5702189178025 46  40.043990086741 46  L 28 46  L 28 32.23226812159  L 21 32.23226812159  L 21 46  L 8.95600991325904 46  C 8.42978108219745 46  7.97439074762494 45.7729280332554  7.58983890954158 45.3187840997662  C 7.20528707145812 44.864640166277  7.0130111524164 44.3268381397766  7 43.705378020265  L 7 26.4957131722525  C 7.0130111524164 26.4718108599636  7.01807104502271 26.4359573915303  7.02819083023536 26.3881527669525  C 7.03831061544827 26.3403481423746  7.04337050805458 26.3044946739414  7.04337050805458 26.2805923616524  L 24.5 9.28604832424008  L 41.9566294919454 26.2805923616524  Z M 48.9696406443618 23.1792673421669  C 48.9898802147874 23.501948558067  48.9190417182982 23.7828007274617  48.7571251548947 24.0218238503508  L 46.8748451053284 26.6749805144194  C 46.7129285419249 26.8901013250194  46.5004130524577 27.0215640426084  46.2372986369269 27.0693686671863  L 46.1462205700125 27.0693686671863  C 45.8831061544817 27.0693686671863  45.6705906650145 26.9857105741751  45.508674101611 26.8183943881528  L 24.5 6.13094310210435  L 3.49132589838902 26.8183943881528  C 3.24845105328379 27.009612886464  3.00557620817844 27.0932709794752  2.76270136307306 27.0693686671863  C 2.4995869475423 27.0215640426084  2.28707145807513 26.8901013250194  2.1251548946716 26.6749805144194  L 0.242874845105348 24.0218238503508  C 0.0809582817018395 23.7828007274617  0.0101197852126518 23.501948558067  0.0303593556382111 23.1792673421669  C 0.0505989260636284 22.8565861262665  0.161916563403537 22.5996362691608  0.36431226765805 22.4084177708495  L 22.1926889714993 0.932190179267309  C 22.8403552251136 0.310730059755684  23.6094589012805 0  24.5 0  C 25.3905410987195 0  26.1596447748863 0.310730059755684  26.8073110285007 0.932190179267309  L 34.2149938042132 8.24629773967261  L 34.2149938042132 1.25487139516763  C 34.2149938042132 0.92023902312296  34.3060718711277 0.645362431800407  34.4882280049566 0.430241621200381  C 34.6703841387857 0.215120810600155  34.9031391986782 0.107560405300077  35.1864931846344 0.107560405300077  L 41.0154894671623 0.107560405300077  C 41.2988434531185 0.107560405300077  41.5315985130111 0.215120810600155  41.7137546468402 0.430241621200381  C 41.8959107806693 0.645362431800407  41.9869888475836 0.92023902312296  42 1.25487139516763  L 42 15.8830865159782  L 48.635687732342 22.4084177708495  C 48.8380834365965 22.5996362691608  48.9494010739364 22.8565861262665  48.9696406443618 23.1792673421669  Z " fill-rule="nonzero" fill="#663300" stroke="none" transform="matrix(1 0 0 1 205 98 )" />
  </g>
</svg>