<?xml version="1.0" encoding="utf-8"?>
<svg version="1.1" xmlns:xlink="http://www.w3.org/1999/xlink" width="49px" height="45px" xmlns="http://www.w3.org/2000/svg">
  <g transform="matrix(1 0 0 1 -300 -102 )">
    <path d="M 17.7271634615385 38.0326704545455  C 18.4731570512821 38.8423295454545  18.8461538461536 39.8011363636363  18.8461538461536 40.909090909091  C 18.8461538461536 42.0170454545455  18.4731570512821 42.9758522727273  17.7271634615385 43.7855113636363  C 16.9811698717949 44.5951704545454  16.0977564102565 45  15.076923076923 45  C 14.0560897435897 45  13.1726762820511 44.5951704545454  12.4266826923075 43.7855113636363  C 11.6806891025643 42.9758522727273  11.3076923076924 42.0170454545455  11.3076923076924 40.909090909091  C 11.3076923076924 39.8011363636363  11.6806891025643 38.8423295454545  12.4266826923075 38.0326704545455  C 13.1726762820511 37.2230113636363  14.0560897435897 36.8181818181819  15.076923076923 36.8181818181819  C 16.0977564102565 36.8181818181819  16.9811698717949 37.2230113636363  17.7271634615385 38.0326704545455  Z M 44.1117788461536 38.0326704545455  C 44.8577724358974 38.8423295454545  45.2307692307693 39.8011363636363  45.2307692307693 40.909090909091  C 45.2307692307693 42.0170454545455  44.8577724358974 42.9758522727273  44.1117788461536 43.7855113636363  C 43.3657852564103 44.5951704545454  42.4823717948719 45  41.4615384615385 45  C 40.4407051282051 45  39.5572916666667 44.5951704545454  38.8112980769229 43.7855113636363  C 38.0653044871795 42.9758522727273  37.6923076923076 42.0170454545455  37.6923076923076 40.909090909091  C 37.6923076923076 39.8011363636363  38.0653044871795 38.8423295454545  38.8112980769229 38.0326704545455  C 39.5572916666667 37.2230113636363  40.4407051282051 36.8181818181819  41.4615384615385 36.8181818181819  C 42.4823717948719 36.8181818181819  43.3657852564103 37.2230113636363  44.1117788461536 38.0326704545455  Z M 48.4405048076924 4.69815340909093  C 48.8135016025639 5.10298295454547  49 5.5823863636364  49 6.1363636363637  L 49 22.5  C 49 23.0113636363637  48.8380408653845 23.4641335227273  48.5141225961536 23.8583096590909  C 48.1902043269229 24.2524857954546  47.7926682692307 24.4815340909091  47.3215144230771 24.5454545454546  L 16.5787259615385 28.4446022727273  C 16.8339342948719 29.7230113636363  16.9615384615385 30.46875  16.9615384615385 30.6818181818182  C 16.9615384615385 31.0227272727273  16.7259615384615 31.7045454545454  16.2548076923076 32  L 43.3461538461536 32  C 43.8565705128205 32.7272727272727  44.2982772435897 32.9296875  44.6712740384615 33.3345170454546  C 45.0442708333334 33.7393465909091  45.2307692307693 34.21875  45.2307692307693 34.7727272727273  C 45.2307692307693 35.3267045454545  45.0442708333334 35.8061079545455  44.6712740384615 36.2109375  C 44.2982772435897 36.6157670454546  43.8565705128205 36.8181818181819  43.3461538461536 36  L 13.1923076923075 36  C 12.681891025641 36.8181818181819  12.2401842948719 36.6157670454546  11.8671875 36.2109375  C 11.4941907051281 35.8061079545455  11.3076923076924 35.3267045454545  11.3076923076924 34.7727272727273  C 11.3076923076924 34.5383522727273  11.3862179487179 34.2027698863637  11.5432692307693 33.7659801136363  C 11.7003205128205 33.329190340909  11.8573717948719 32.9456676136363  12.014423076923 32.6154119318181  C 12.1714743589744 32.28515625  12.3825120192307 31.8590198863637  12.6475360576925 31.3370028409091  C 12.9125600961536 30.8149857954545  13.064703525641 30.5007102272727  13.1039663461536 30.3941761363637  L 7.89182692307705 4.09090909090907  L 1.88461538461546 4.09090909090907  C 1.37419871794893 4.09090909090907  0.932491987179489 3.88849431818177  0.559495192307551 3.48366477272728  C 0.186498397435732 3.07883522727266  0 2.59943181818187  0 2.04545454545449  C 0 1.49147727272734  0.186498397435732 1.0120738636364  0.559495192307551 0.607244318181785  C 0.932491987179489 0.202414772727252  1.37419871794893 0  1.88461538461546 0  L 9.42307692307705 0  C 9.73717948717949 0  10.0169270833334 0.0692471590909776  10.2623197115385 0.20774147727272  C 10.5077123397435 0.346235795454533  10.6991185897435 0.511363636363697  10.8365384615385 0.703125  C 10.9739583333334 0.894886363636303  11.1015625 1.15589488636361  11.2193509615385 1.48615056818178  C 11.337139423077 1.81640625000001  11.4156650641026 2.0933948863637  11.4549278846155 2.31711647727272  C 11.4941907051281 2.54083806818178  11.5481770833334 2.8551136363636  11.6168870192307 3.25994318181822  C 11.6855969551281 3.66477272727275  11.7297676282051 3.94176136363639  11.7493990384615 4  L 47.1153846153845 4  C 47.6258012820511 4.09090909090907  48.0675080128205 4.29332386363637  48.4405048076924 4.69815340909093  Z " fill-rule="nonzero" fill="#3399ff" stroke="none" transform="matrix(1 0 0 1 300 102 )" />
  </g>
</svg>