<?xml version="1.0" encoding="utf-8"?>
<svg version="1.1" xmlns:xlink="http://www.w3.org/1999/xlink" width="23px" height="23px" xmlns="http://www.w3.org/2000/svg">
  <g transform="matrix(1 0 0 1 -113 -20 )">
    <path d="M 5.24687500000001 14.303125  L 8.55312500000001 14.878125  L 8.625 21.203125  L 10.49375 22.496875  L 14.015625 22.496875  L 15.66875 21.203125  L 15.66875 14.878125  L 20.84375 12.721875  L 22.56875 10.278125  L 22.56875 6.971875  L 19.55 6.46875  L 16.603125 6.971875  L 14.015625 12.075  L 15.66875 5.390625  L 15.66875 2.15625  L 11.859375 0.431250000000001  L 8.55312500000001 1.078125  L 7.33124999999999 2.15625  L 7.33124999999999 5.390625  L 7.33124999999999 8.840625  L 8.625 11.715625  L 6.68437500000001 8.3375  L 3.7375 6.971875  L 1.58125 6.46875  L 0.0718749999999959 8.3375  L 0 10.78125  L 2.5875 13.36875  L 5.24687500000001 14.303125  Z " fill-rule="nonzero" fill="#ffffff" stroke="none" transform="matrix(1 0 0 1 113 20 )" />
  </g>
</svg>