<?xml version="1.0" encoding="utf-8"?>
<svg version="1.1" xmlns:xlink="http://www.w3.org/1999/xlink" width="13px" height="15px" xmlns="http://www.w3.org/2000/svg">
  <g transform="matrix(1 0 0 1 -349 -112 )">
    <path d="M 12.986160397445 0.569957386363636  C 13.0076886680861 0.715553977272726  12.9876981310622 0.855823863636363  12.9261887863733 0.990767045454545  L 7.02129169623847 14.6271306818182  C 6.91672581026733 14.8757102272727  6.74142417790395 15  6.49538679914833 15  C 6.46463212680388 15  6.4185001182872 14.9928977272727  6.3569907735983 14.9786931818182  C 6.22167021528271 14.9431818181818  6.1124911284599 14.86328125  6.02945351312988 14.7389914772727  C 5.94641589779986 14.6147017045455  5.90489709013485 14.4744318181818  5.90489709013485 14.3181818181818  L 5.90489709013485 8.18181818181818  L 0.590489709013485 8.18181818181818  C 0.455169150697895 8.18181818181818  0.333688194937308 8.13387784090909  0.226046841731725 8.03799715909091  C 0.118405488526141 7.94211647727273  0.0492074757511237 7.81605113636363  0.0184528034066714 7.65980113636364  C -0.0123018689377809 7.50355113636364  0 7.35440340909091  0.0553584102200142 7.21235795454546  C 0.110716820440028 7.0703125  0.19990537023894 6.96377840909091  0.322924059616749 6.89275568181818  L 12.1327182398864 0.0745738636363641  C 12.212680387982 0.0248579545454536  12.3018689377809 0  12.4002838892832 0  C 12.5663591199432 0  12.7047551454933 0.0674715909090895  12.8154719659333 0.202414772727273  C 12.9077359829666 0.30184659090909  12.9646321268039 0.424360795454544  12.986160397445 0.569957386363636  Z " fill-rule="nonzero" fill="#000000" stroke="none" transform="matrix(1 0 0 1 349 112 )" />
  </g>
</svg>