<?xml version="1.0" encoding="utf-8"?>
<svg version="1.1" xmlns:xlink="http://www.w3.org/1999/xlink" width="25px" height="25px" xmlns="http://www.w3.org/2000/svg">
  <g transform="matrix(1 0 0 1 -25 -70 )">
    <path d="M 37.5 71  C 43.94 71  49 76.06  49 82.5  C 49 88.94  43.94 94  37.5 94  C 31.06 94  26 88.94  26 82.5  C 26 76.06  31.06 71  37.5 71  Z " fill-rule="nonzero" fill="#ffffff" stroke="none" />
    <path d="M 37.5 71  C 43.94 71  49 76.06  49 82.5  C 49 88.94  43.94 94  37.5 94  C 31.06 94  26 88.94  26 82.5  C 26 76.06  31.06 71  37.5 71  Z " stroke-width="2" stroke="#fc7298" fill="none" />
  </g>
</svg>