<?xml version="1.0" encoding="utf-8"?>
<svg version="1.1" xmlns:xlink="http://www.w3.org/1999/xlink" width="28px" height="20px" xmlns="http://www.w3.org/2000/svg">
  <g transform="matrix(1 0 0 1 -26 -121 )">
    <path d="M 2.33333333333333 0  L 25.6666666666667 0  C 26.3083333333333 0  26.8576388888889 0.203993055555554  27.3145833333333 0.611979166666667  C 27.7715277777778 1.01996527777778  28 1.51041666666667  28 2.08333333333333  L 28 17.9166666666667  C 28 18.4895833333333  27.7715277777778 18.9800347222222  27.3145833333333 19.3880208333333  C 26.8576388888889 19.7960069444444  26.3083333333333 20  25.6666666666667 20  L 2.33333333333333 20  C 1.69166666666667 20  1.14236111111111 19.7960069444444  0.685416666666667 19.3880208333333  C 0.228472222222222 18.9800347222222  0 18.4895833333333  0 17.9166666666667  L 0 2.08333333333333  C 0 1.51041666666667  0.228472222222222 1.01996527777778  0.685416666666667 0.611979166666667  C 1.14236111111111 0.203993055555554  1.69166666666667 0  2.33333333333333 0  Z M 25.6666666666667 2  L 2.33333333333333 2  C 2.20694444444444 1.66666666666667  2.09756944444444 1.70789930555555  2.00520833333333 1.79036458333333  C 1.91284722222222 1.87282986111111  1.86666666666667 1.97048611111111  1.86666666666667 2.08333333333333  L 1.86666666666667 5  L 26.1333333333333 5  L 26.1333333333333 2.08333333333333  C 26.1333333333333 1.97048611111111  26.0871527777778 1.87282986111111  25.9947916666667 1.79036458333333  C 25.9024305555556 1.70789930555555  25.7930555555556 1.66666666666667  25.6666666666667 2  Z M 2.33333333333333 18  L 25.6666666666667 18  C 25.7930555555556 18.3333333333333  25.9024305555556 18.2921006944444  25.9947916666667 18.2096354166667  C 26.0871527777778 18.1271701388889  26.1333333333333 18.0295138888889  26.1333333333333 17.9166666666667  L 26.1333333333333 10  L 1.86666666666667 10  L 1.86666666666667 17.9166666666667  C 1.86666666666667 18.0295138888889  1.91284722222222 18.1271701388889  2.00520833333333 18.2096354166667  C 2.09756944444444 18.2921006944444  2.20694444444444 18.3333333333333  2.33333333333333 18  Z M 7.46666666666667 16.6666666666667  L 3.73333333333333 16.6666666666667  L 3.73333333333333 15  L 7.46666666666667 15  L 7.46666666666667 16.6666666666667  Z M 14.9333333333333 16.6666666666667  L 9.33333333333333 16.6666666666667  L 9.33333333333333 15  L 14.9333333333333 15  L 14.9333333333333 16.6666666666667  Z " fill-rule="nonzero" fill="#fc7298" stroke="none" transform="matrix(1 0 0 1 26 121 )" />
  </g>
</svg>