<?xml version="1.0" encoding="utf-8"?>
<svg version="1.1" xmlns:xlink="http://www.w3.org/1999/xlink" width="15px" height="28px" xmlns="http://www.w3.org/2000/svg">
  <g transform="matrix(1 0 0 1 -13 -8 )">
    <path d="M 14.7422680412371 1.68336673346693  C 14.914089347079 1.87040748162992  15 2.08550434201736  15 2.32865731462926  C 15 2.57181028724115  14.914089347079 2.78690714762859  14.7422680412371 2.97394789579158  L 4.61340206185567 14  L 14.7422680412371 25.0260521042084  C 14.914089347079 25.2130928523714  15 25.4281897127589  15 25.6713426853707  C 15 25.9144956579826  14.914089347079 26.1295925183701  14.7422680412371 26.3166332665331  L 13.4536082474227 27.7194388777555  C 13.2817869415808 27.9064796259185  13.0841924398625 28  12.860824742268 28  C 12.6374570446735 28  12.4398625429553 27.9064796259185  12.2680412371134 27.7194388777555  L 0.257731958762887 14.6452905811623  C 0.0859106529209623 14.4582498329993  0 14.2431529726119  0 14  C 0 13.7568470273881  0.0859106529209623 13.5417501670007  0.257731958762887 13.3547094188377  L 12.2680412371134 0.280561122244489  C 12.4398625429553 0.0935203740814954  12.6374570446735 0  12.860824742268 0  C 13.0841924398625 0  13.2817869415808 0.0935203740814954  13.4536082474227 0.280561122244489  L 14.7422680412371 1.68336673346693  Z " fill-rule="nonzero" fill="#ffffff" stroke="none" transform="matrix(1 0 0 1 13 8 )" />
  </g>
</svg>