<?xml version="1.0" encoding="utf-8"?>
<svg version="1.1" xmlns:xlink="http://www.w3.org/1999/xlink" width="15px" height="28px" xmlns="http://www.w3.org/2000/svg">
  <g transform="matrix(1 0 0 1 -340 -101 )">
    <path d="M 14.7422680412371 13.3547094188377  C 14.914089347079 13.5417501670007  15 13.7568470273881  15 14  C 15 14.2431529726119  14.914089347079 14.4582498329993  14.7422680412371 14.6452905811623  L 2.7319587628866 27.7194388777555  C 2.56013745704467 27.9064796259185  2.36254295532646 28  2.13917525773196 28  C 1.91580756013746 28  1.71821305841924 27.9064796259185  1.54639175257732 27.7194388777555  L 0.257731958762887 26.3166332665331  C 0.0859106529209623 26.1295925183701  0 25.9144956579826  0 25.6713426853707  C 0 25.4281897127589  0.0859106529209623 25.2130928523714  0.257731958762887 25.0260521042084  L 10.3865979381443 14  L 0.257731958762887 2.97394789579158  C 0.0859106529209623 2.78690714762859  0 2.57181028724115  0 2.32865731462926  C 0 2.08550434201736  0.0859106529209623 1.87040748162992  0.257731958762887 1.68336673346693  L 1.54639175257732 0.280561122244489  C 1.71821305841924 0.0935203740814954  1.91580756013746 0  2.13917525773196 0  C 2.36254295532646 0  2.56013745704467 0.0935203740814954  2.7319587628866 0.280561122244489  L 14.7422680412371 13.3547094188377  Z " fill-rule="nonzero" fill="#d7d7d7" stroke="none" transform="matrix(1 0 0 1 340 101 )" />
  </g>
</svg>