<?xml version="1.0" encoding="utf-8"?>
<svg version="1.1" xmlns:xlink="http://www.w3.org/1999/xlink" width="23px" height="23px" xmlns="http://www.w3.org/2000/svg">
  <g transform="matrix(1 0 0 1 -120 -20 )">
    <path d="M 19.6939281288724 13.1402961808262  C 19.7034283353986 13.1641984931151  19.7081784386617 13.2000519615485  19.7081784386617 13.2478565861263  L 19.7081784386617 21.8526890101325  C 19.7081784386617 22.1634190698883  19.6179264766626 22.4323200831385  19.4374225526642 22.6593920498831  C 19.2569186286658 22.8864640166277  19.0431639818257 23  18.7961586121437 23  L 13.3240396530359 23  L 13.3240396530359 16.116134060795  L 9.67596034696406 16.116134060795  L 9.67596034696406 23  L 4.20384138785626 23  C 3.95683601817433 23  3.74308137133417 22.8864640166277  3.56257744733582 22.6593920498831  C 3.38207352333748 22.4323200831385  3.29182156133829 22.1634190698883  3.29182156133829 21.8526890101325  L 3.29182156133829 13.2478565861263  C 3.29182156133829 13.2359054299818  3.29419661296984 13.2179786957651  3.29894671623295 13.1940763834762  C 3.30369681949609 13.1701740711873  3.30607187112764 13.1522473369706  3.30607187112764 13.1402961808262  L 11.5 4.64302416212002  L 19.6939281288724 13.1402961808262  Z M 22.9857496902106 11.5896336710834  C 22.9952498967369 11.7509742790335  22.9619991738951 11.8914003637308  22.8859975216852 12.0109119251754  L 22.002478314746 13.3374902572097  C 21.9264766625362 13.4450506625098  21.8267244940107 13.5107820213042  21.7032218091698 13.5346843335931  L 21.6604708798017 13.5346843335931  C 21.5369681949608 13.5346843335931  21.4372160264354 13.4928552870876  21.3612143742255 13.4091971940764  L 11.5 3.06547155105221  L 1.63878562577449 13.4091971940764  C 1.52478314745973 13.504806443232  1.41078066914498 13.5466354897376  1.29677819083022 13.5346843335931  C 1.17327550598925 13.5107820213042  1.07352333746385 13.4450506625098  0.997521685254014 13.3374902572097  L 0.114002478314756 12.0109119251754  C 0.0380008261049188 11.8914003637308  0.00475010326310439 11.7509742790335  0.014250309789355 11.5896336710834  C 0.0237505163155638 11.4282930631333  0.0760016522098376 11.2998181345804  0.171003717472135 11.2042088854248  L 10.4169764560099 0.46609508963368  C 10.7209830648492 0.155365029877876  11.0819909128459 0  11.5 0  C 11.9180090871541 0  12.2790169351508 0.155365029877876  12.5830235439901 0.46609508963368  L 16.0600991325898 4.12314886983632  L 16.0600991325898 0.627435697583798  C 16.0600991325898 0.460119511561437  16.1028500619579 0.322681215900236  16.1883519206939 0.215120810600166  C 16.27385377943 0.10756040530007  16.3831061544816 0.0537802026500481  16.5161090458488 0.0537802026500481  L 19.2521685254027 0.0537802026500481  C 19.3851714167699 0.0537802026500481  19.4944237918216 0.10756040530007  19.5799256505576 0.215120810600166  C 19.6654275092937 0.322681215900236  19.7081784386617 0.460119511561437  19.7081784386617 0.627435697583798  L 19.7081784386617 7.9415432579891  L 22.8289962825279 11.2042088854248  C 22.9239983477902 11.2998181345804  22.9762494836844 11.4282930631333  22.9857496902106 11.5896336710834  Z " fill-rule="nonzero" fill="#ffffff" stroke="none" transform="matrix(1 0 0 1 120 20 )" />
  </g>
</svg>