<?xml version="1.0" encoding="utf-8"?>
<svg version="1.1" xmlns:xlink="http://www.w3.org/1999/xlink" width="23px" height="20px" xmlns="http://www.w3.org/2000/svg">
  <g transform="matrix(1 0 0 1 -116 -21 )">
    <path d="M 11.7435897435897 9.36079545454545  C 11.9059829059829 9.18087121212121  12.0982905982906 9.09090909090909  12.3205128205128 9.09090909090909  C 12.542735042735 9.09090909090909  12.7350427350427 9.18087121212121  12.8974358974359 9.36079545454545  C 13.0598290598291 9.5407196969697  13.1410256410256 9.75378787878788  13.1410256410256 10  C 13.1410256410256 10.2462121212121  13.0598290598291 10.4592803030303  12.8974358974359 10.6392045454545  C 12.7350427350427 10.8191287878788  12.542735042735 10.9090909090909  12.3205128205128 10.9090909090909  C 12.0982905982906 10.9090909090909  11.9059829059829 10.8191287878788  11.7435897435897 10.6392045454545  C 11.5811965811966 10.4592803030303  11.5 10.2462121212121  11.5 10  C 11.5 9.75378787878788  11.5811965811966 9.5407196969697  11.7435897435897 9.36079545454545  Z M 22.6666666666667 4.34659090909091  L 16.1666666666667 10  L 22.6666666666667 15.6534090909091  C 22.9059829059829 15.842803030303  23.0128205128205 16.1079545454545  22.9871794871795 16.4488636363636  C 22.9444444444444 16.780303030303  22.7948717948718 17.0217803030303  22.5384615384615 17.1732954545455  L 20.8974358974359 18.0823863636364  C 20.7863247863248 18.1486742424242  20.6623931623932 18.1818181818182  20.525641025641 18.1818181818182  C 20.3803418803419 18.1818181818182  20.2478632478633 18.1439393939394  20.1282051282051 18.0681818181818  L 11.2820512820513 12.5710227272727  L 9.87179487179487 13.5085227272727  C 9.8034188034188 13.5464015151515  9.75213675213675 13.5700757575758  9.71794871794872 13.5795454545455  C 9.83760683760684 14.0435606060606  9.88034188034188 14.5028409090909  9.84615384615385 14.9573863636364  C 9.78632478632479 15.686553030303  9.54700854700855 16.3849431818182  9.12820512820513 17.0525568181818  C 8.70940170940171 17.7201704545455  8.14529914529915 18.3049242424242  7.43589743589744 18.8068181818182  C 6.30769230769231 19.6022727272727  5.12393162393163 20  3.88461538461538 20  C 2.72222222222222 20  1.77350427350427 19.6306818181818  1.03846153846154 18.8920454545455  C 0.269230769230769 18.0965909090909  -0.0683760683760684 17.1164772727273  0.0256410256410256 15.9517045454545  C 0.0854700854700855 15.2320075757576  0.324786324786325 14.5359848484848  0.743589743589744 13.8636363636364  C 1.16239316239316 13.1912878787879  1.72222222222222 12.6041666666667  2.42307692307692 12.1022727272727  C 3.55128205128205 11.3068181818182  4.73931623931624 10.9090909090909  5.98717948717949 10.9090909090909  C 6.6965811965812 10.9090909090909  7.34188034188034 11.0558712121212  7.92307692307692 11.3494318181818  C 8 11.2263257575758  8.09401709401709 11.1221590909091  8.20512820512821 11.0369318181818  L 9.76923076923077 10  L 8.20512820512821 8.96306818181818  C 8.09401709401709 8.87784090909091  8 8.77367424242424  7.92307692307692 8.65056818181818  C 7.34188034188034 8.94412878787879  6.6965811965812 9.09090909090909  5.98717948717949 9.09090909090909  C 4.73931623931624 9.09090909090909  3.55128205128205 8.69318181818182  2.42307692307692 7.89772727272727  C 1.72222222222222 7.39583333333333  1.16239316239316 6.80871212121212  0.743589743589744 6.13636363636363  C 0.324786324786325 5.46401515151515  0.0854700854700855 4.76799242424242  0.0256410256410256 4.04829545454545  C -0.0170940170940171 3.48958333333333  0.0491452991452991 2.95454545454545  0.224358974358974 2.44318181818182  C 0.39957264957265 1.93181818181818  0.670940170940171 1.49147727272727  1.03846153846154 1.12215909090909  C 1.76495726495727 0.37405303030303  2.71367521367521 0  3.88461538461538 0  C 5.12393162393163 0  6.30769230769231 0.397727272727273  7.43589743589744 1.19318181818182  C 8.14529914529915 1.68560606060606  8.70940170940171 2.26799242424242  9.12820512820513 2.94034090909091  C 9.54700854700855 3.61268939393939  9.78632478632479 4.31344696969697  9.84615384615385 5.04261363636363  C 9.88034188034188 5.49715909090909  9.83760683760684 5.95643939393939  9.71794871794872 6.42045454545455  C 9.75213675213675 6.42992424242424  9.8034188034188 6.45359848484848  9.87179487179487 6.49147727272727  L 11.2820512820513 7.42897727272727  L 20.1282051282051 1.93181818181818  C 20.2478632478633 1.8560606060606  20.3803418803419 1.81818181818182  20.525641025641 1.81818181818182  C 20.6623931623932 1.81818181818182  20.7863247863248 1.85132575757576  20.8974358974359 1.91761363636364  L 22.5384615384615 2.82670454545455  C 22.7948717948718 2.9782196969697  22.9444444444444 3.21969696969697  22.9871794871795 3.55113636363636  C 23.0128205128205 3.89204545454545  22.9059829059829 4.15719696969697  22.6666666666667 4.34659090909091  Z M 5.98717948717949 6.81818181818182  C 6.61965811965812 6.81818181818182  7.1025641025641 6.64772727272727  7.43589743589744 6.30681818181818  C 7.82905982905983 5.90909090909091  7.91880341880342 5.39772727272727  7.7051282051282 4.77272727272727  C 7.49145299145299 4.14772727272727  7.03846153846154 3.59375  6.34615384615385 3.11079545454545  C 5.55982905982906 2.55208333333333  4.73931623931624 2.27272727272727  3.88461538461538 2.27272727272727  C 3.25213675213675 2.27272727272727  2.76923076923077 2.44318181818182  2.43589743589744 2.78409090909091  C 2.04273504273504 3.18181818181818  1.95299145299145 3.69318181818182  2.16666666666667 4.31818181818182  C 2.38034188034188 4.94318181818182  2.83333333333333 5.49715909090909  3.52564102564103 5.98011363636363  C 4.31196581196581 6.53882575757576  5.13247863247863 6.81818181818182  5.98717948717949 6.81818181818182  Z M 3.88461538461538 17.7272727272727  C 4.73931623931624 17.7272727272727  5.55982905982906 17.4479166666667  6.34615384615385 16.8892045454545  C 7.03846153846154 16.40625  7.49145299145299 15.8522727272727  7.7051282051282 15.2272727272727  C 7.91880341880342 14.6022727272727  7.82905982905983 14.0909090909091  7.43589743589744 13.6931818181818  C 7.1025641025641 13.3522727272727  6.61965811965812 13.1818181818182  5.98717948717949 13.1818181818182  C 5.13247863247863 13.1818181818182  4.31196581196581 13.4611742424242  3.52564102564103 14.0198863636364  C 2.83333333333333 14.5028409090909  2.38034188034188 15.0568181818182  2.16666666666667 15.6818181818182  C 1.95299145299145 16.3068181818182  2.04273504273504 16.8181818181818  2.43589743589744 17.2159090909091  C 2.76923076923077 17.5568181818182  3.25213675213675 17.7272727272727  3.88461538461538 17.7272727272727  Z M 8.74358974358974 8.05397727272727  L 8.62820512820513 8.18181818181818  L 9.85897435897436 9.00568181818182  L 9.85897435897436 8.84943181818182  C 9.85897435897436 8.50852272727273  10 8.24337121212121  10.2820512820513 8.05397727272727  L 10.4615384615385 7.94034090909091  L 9.44871794871795 7.27272727272727  L 9.11538461538462 7.64204545454545  C 9.08974358974359 7.67045454545455  9.04700854700855 7.72253787878788  8.98717948717949 7.79829545454545  C 8.92735042735043 7.87405303030303  8.87606837606838 7.93087121212121  8.83333333333333 7.96875  C 8.81623931623932 7.98768939393939  8.7991452991453 8.00426136363637  8.78205128205128 8.01846590909091  C 8.76495726495727 8.03267045454545  8.75213675213675 8.04450757575758  8.74358974358974 8.05397727272727  Z M 9.44871794871795 12.7272727272727  L 11.5 11.3636363636364  L 12.7307692307692 11.8181818181818  L 22.1666666666667 3.63636363636364  L 20.525641025641 2.72727272727273  L 10.6794871794872 8.84943181818182  L 10.6794871794872 10.4545454545455  L 8.62820512820513 11.8181818181818  L 8.74358974358974 11.9318181818182  C 8.76068376068376 11.9507575757576  8.79059829059829 11.9791666666667  8.83333333333333 12.0170454545455  C 8.86752136752137 12.0549242424242  8.91452991452991 12.1117424242424  8.97435897435897 12.1875  C 9.03418803418804 12.2632575757576  9.08119658119658 12.3200757575758  9.11538461538462 12.3579545454545  L 9.44871794871795 12.7272727272727  Z M 13.0641025641026 12.6278409090909  L 20.525641025641 17.2727272727273  L 22.1666666666667 16.3636363636364  L 15.5 10.5681818181818  L 13.2307692307692 12.5284090909091  C 13.2136752136752 12.5568181818182  13.1581196581197 12.5899621212121  13.0641025641026 12.6278409090909  Z " fill-rule="nonzero" fill="#ffffff" stroke="none" transform="matrix(1 0 0 1 116 21 )" />
  </g>
</svg>