<?xml version="1.0" encoding="utf-8"?>
<svg version="1.1" xmlns:xlink="http://www.w3.org/1999/xlink" width="20px" height="23px" xmlns="http://www.w3.org/2000/svg">
  <g transform="matrix(1 0 0 1 -116 -19 )">
    <path d="M 8.88888888888879 0  L 8.88888888888879 8.05  L 6.66666666666664 8.05  L 6.66666666666664 0  L 4.44444444444443 0  L 4.44444444444443 8.05  L 2.22222222222229 8.05  L 2.22222222222229 0  L 0 0  L 0 8.05  C 0 10.49375  1.84444444444452 12.47175  4.16666666666664 12.62125  L 4.16666666666664 23  L 7 23  L 7 12.62125  C 9.26666666666669 12.47175  11.1111111111112 10.49375  11.1111111111112 8.05  L 11.1111111111112 0  L 8.88888888888879 0  Z M 20 0  C 16.9333333333333 0  14.4444444444444 2.57600000000001  14.4444444444444 4.6  L 14.4444444444444 13.8  L 17.2222222222223 13.8  L 17.2222222222223 23  L 20 23  L 20 0  Z " fill-rule="nonzero" fill="#fffefe" stroke="none" transform="matrix(1 0 0 1 116 19 )" />
  </g>
</svg>