<?xml version="1.0" encoding="utf-8"?>
<svg version="1.1" xmlns:xlink="http://www.w3.org/1999/xlink" width="20px" height="20px" xmlns="http://www.w3.org/2000/svg">
  <g transform="matrix(1 0 0 1 -280 -65 )">
    <path d="M 7.88020833333333 9.09254807692308  C 8.46701388888889 8.41546474358974  9.17361111111111 8.07692307692307  10 8.07692307692308  C 10.8263888888889 8.07692307692307  11.5329861111111 8.41546474358974  12.1197916666667 9.09254807692308  C 12.7065972222222 9.76963141025641  13 10.5849358974359  13 11.5384615384615  C 13 12.4919871794872  12.7065972222222 13.3072916666667  12.1197916666667 13.984375  C 11.5329861111111 14.6614583333333  10.8263888888889 15  10 15  C 9.17361111111111 15  8.46701388888889 14.6614583333333  7.88020833333333 13.984375  C 7.29340277777778 13.3072916666667  7 12.4919871794872  7 11.5384615384615  C 7 10.5849358974359  7.29340277777778 9.76963141025641  7.88020833333333 9.09254807692308  Z M 15 3.07692307692308  L 17.3333333333333 3.07692307692308  C 18.0694444444444 3.07692307692308  18.6979166666667 3.37740384615385  19.21875 3.97836538461539  C 19.7395833333333 4.57932692307692  20 5.30448717948718  20 6.15384615384615  L 20 16.9230769230769  C 20 17.7724358974359  19.7395833333333 18.4975961538462  19.21875 19.0985576923077  C 18.6979166666667 19.6995192307692  18.0694444444444 20  17.3333333333333 20  L 2.66666666666667 20  C 1.93055555555556 20  1.30208333333333 19.6995192307692  0.78125 19.0985576923077  C 0.260416666666667 18.4975961538462  0 17.7724358974359  0 16.9230769230769  L 0 6.15384615384615  C 0 5.30448717948718  0.260416666666667 4.57932692307692  0.78125 3.97836538461539  C 1.30208333333333 3.37740384615385  1.93055555555556 3.07692307692308  2.66666666666667 3.07692307692308  L 5 3.07692307692308  L 5.53125 1.44230769230769  C 5.66319444444444 1.04967948717949  5.90451388888889 0.711137820512819  6.25520833333333 0.426682692307692  C 6.60590277777778 0.142227564102566  6.96527777777778 0  7.33333333333333 0  L 12.6666666666667 0  C 13.0347222222222 0  13.3940972222222 0.142227564102566  13.7447916666667 0.426682692307692  C 14.0954861111111 0.711137820512819  14.3368055555556 1.04967948717949  14.46875 1.44230769230769  L 15 3.07692307692308  Z M 6.703125 15.3425480769231  C 7.61631944444444 16.396233974359  8.71527777777778 16.9230769230769  10 16.9230769230769  C 11.2847222222222 16.9230769230769  12.3836805555556 16.396233974359  13.296875 15.3425480769231  C 14.2100694444444 14.2888621794872  14.6666666666667 13.0208333333333  14.6666666666667 11.5384615384615  C 14.6666666666667 10.0560897435897  14.2100694444444 8.7880608974359  13.296875 7.734375  C 12.3836805555556 6.6806891025641  11.2847222222222 6.15384615384615  10 6.15384615384615  C 8.71527777777778 6.15384615384615  7.61631944444444 6.6806891025641  6.703125 7.734375  C 5.78993055555556 8.7880608974359  5.33333333333333 10.0560897435897  5.33333333333333 11.5384615384615  C 5.33333333333333 13.0208333333333  5.78993055555556 14.2888621794872  6.703125 15.3425480769231  Z " fill-rule="nonzero" fill="#000000" stroke="none" transform="matrix(1 0 0 1 280 65 )" />
  </g>
</svg>