<?xml version="1.0" encoding="utf-8"?>
<svg version="1.1" xmlns:xlink="http://www.w3.org/1999/xlink" width="26px" height="23px" xmlns="http://www.w3.org/2000/svg">
  <g transform="matrix(1 0 0 1 -120 -20 )">
    <path d="M 9.40625000000003 19.4389204545455  C 9.80208333333336 19.8527462121212  9.99999999999992 20.342803030303  9.99999999999992 20.9090909090909  C 9.99999999999992 21.4753787878788  9.80208333333336 21.9654356060606  9.40625000000003 22.3792613636364  C 9.01041666666665 22.7930871212121  8.54166666666672 23  7.99999999999994 23  C 7.45833333333336 23  6.98958333333322 22.7930871212121  6.59374999999994 22.3792613636364  C 6.19791666666672 21.9654356060606  6.00000000000006 21.4753787878788  6.00000000000006 20.9090909090909  C 6.00000000000006 20.342803030303  6.19791666666672 19.8527462121212  6.59374999999994 19.4389204545455  C 6.98958333333322 19.0250946969697  7.45833333333336 18.8181818181818  7.99999999999994 18.8181818181818  C 8.54166666666672 18.8181818181818  9.01041666666665 19.0250946969697  9.40625000000003 19.4389204545455  Z M 23.4062499999999 19.4389204545455  C 23.8020833333333 19.8527462121212  24 20.342803030303  24 20.9090909090909  C 24 21.4753787878788  23.8020833333333 21.9654356060606  23.4062499999999 22.3792613636364  C 23.0104166666666 22.7930871212121  22.5416666666667 23  22 23  C 21.4583333333334 23  20.9895833333334 22.7930871212121  20.5937499999999 22.3792613636364  C 20.1979166666667 21.9654356060606  19.9999999999999 21.4753787878788  19.9999999999999 20.9090909090909  C 19.9999999999999 20.342803030303  20.1979166666667 19.8527462121212  20.5937499999999 19.4389204545455  C 20.9895833333334 19.0250946969697  21.4583333333334 18.8181818181818  22 18.8181818181818  C 22.5416666666667 18.8181818181818  23.0104166666666 19.0250946969697  23.4062499999999 19.4389204545455  Z M 25.7031250000001 2.40127840909092  C 25.9010416666666 2.6081912878788  26 2.8532196969697  26 3.13636363636363  L 26 11.5  C 26 11.7613636363636  25.9140625 11.9927793560606  25.7421874999999 12.1942471590909  C 25.5703124999999 12.3957149621212  25.359375 12.5127840909091  25.1093750000001 12.5454545454546  L 8.79687500000003 14.5383522727273  C 8.93229166666672 15.1917613636364  9.00000000000003 15.5729166666667  9.00000000000003 15.6818181818182  C 9.00000000000003 15.8560606060606  8.87499999999997 16.2045454545454  8.62499999999994 16.7272727272727  L 22.9999999999999 16.7272727272727  C 23.2708333333333 16.7272727272727  23.5052083333334 16.8307291666667  23.703125 17.0376420454546  C 23.9010416666666 17.2445549242424  24 17.4895833333333  24 17.7727272727273  C 24 18.0558712121212  23.9010416666666 18.3008996212121  23.703125 18.5078125  C 23.5052083333334 18.7147253787879  23.2708333333333 18.8181818181818  22.9999999999999 18.8181818181818  L 6.99999999999994 18.8181818181818  C 6.72916666666663 18.8181818181818  6.49479166666672 18.7147253787879  6.296875 18.5078125  C 6.09895833333328 18.3008996212121  6.00000000000006 18.0558712121212  6.00000000000006 17.7727272727273  C 6.00000000000006 17.6529356060606  6.04166666666664 17.481415719697  6.12500000000002 17.2581676136364  C 6.20833333333334 17.0349195075757  6.29166666666672 16.838896780303  6.37499999999994 16.6700994318182  C 6.45833333333336 16.5013020833333  6.57031249999998 16.2834990530303  6.71093750000006 16.0166903409091  C 6.85156249999992 15.7498816287879  6.93229166666663 15.5892518939394  6.95312499999992 15.5348011363636  L 4.18750000000006 2.09090909090908  L 0.999999999999992 2.09090909090908  C 0.729166666666781 2.09090909090908  0.49479166666666 1.98745265151516  0.296874999999944 1.78053977272728  C 0.0989583333332797 1.57362689393937  0 1.32859848484847  0 1.04545454545454  C 0 0.762310606060618  0.0989583333332797 0.517282196969697  0.296874999999944 0.310369318181816  C 0.49479166666666 0.103456439393934  0.729166666666781 0  0.999999999999992 0  L 5.00000000000006 0  C 5.16666666666666 0  5.31510416666663 0.0353929924242499  5.44531249999998 0.106178977272724  C 5.57552083333328 0.176964962121198  5.67708333333328 0.261363636363632  5.74999999999998 0.359375  C 5.82291666666663 0.457386363636368  5.890625 0.590790719696974  5.95312499999998 0.759588068181816  C 6.01562500000006 0.928385416666671  6.0572916666667 1.06995738636363  6.07812499999999 1.18430397727272  C 6.09895833333328 1.29865056818182  6.12760416666663 1.4592803030303  6.16406249999998 1.66619318181818  C 6.20052083333328 1.87310606060607  6.22395833333335 2.01467803030303  6.23437500000002 2  L 25 2  C 25.2708333333332 2.09090909090908  25.5052083333333 2.19436553030303  25.7031250000001 2.40127840909092  Z " fill-rule="nonzero" fill="#ffffff" stroke="none" transform="matrix(1 0 0 1 120 20 )" />
  </g>
</svg>