<?xml version="1.0" encoding="utf-8"?>
<svg version="1.1" xmlns:xlink="http://www.w3.org/1999/xlink" width="55px" height="50px" xmlns="http://www.w3.org/2000/svg">
  <g transform="matrix(1 0 0 1 -160 -499 )">
    <path d="M 14.90478515625 13.923860911271  C 15.3523763020833 13.4342525979217  15.576171875 12.7797761790568  15.576171875 11.9604316546763  C 15.576171875 11.1410871302958  15.3523763020833 10.4816147082334  14.90478515625 9.98201438848921  C 14.4571940104167 9.482414068745  13.8663736979167 9.2326139088729  13.13232421875 9.2326139088729  C 12.3624674479167 9.2326139088729  11.68212890625 9.48741007194245  11.09130859375 9.99700239808153  C 10.50048828125 10.5065947242206  10.205078125 11.1610711430855  10.205078125 11.9604316546763  C 10.205078125 12.7398081534772  10.50048828125 13.3842925659472  11.09130859375 13.8938848920863  C 11.68212890625 14.4034772182254  12.3624674479167 14.658273381295  13.13232421875 14.658273381295  C 13.8663736979167 14.658273381295  14.4571940104167 14.4134692246203  14.90478515625 13.923860911271  Z M 34.844970703125 28.6870503597122  C 35.301513671875 28.2474020783373  35.52978515625 27.7378097521982  35.52978515625 27.158273381295  C 35.52978515625 26.5987210231814  35.301513671875 26.0991207034373  34.844970703125 25.6594724220623  C 34.388427734375 25.2198241406874  33.8020833333333 25  33.0859375 25  C 32.6025390625 25  32.159423828125 25.2248201438849  31.756591796875 25.6744604316547  C 31.353759765625 26.1241007194245  31.15234375 26.6187050359712  31.15234375 27.158273381295  C 31.15234375 27.7178257394085  31.353759765625 28.2224220623501  31.756591796875 28.6720623501199  C 32.159423828125 29.1217026378897  32.6025390625 29.3465227817746  33.0859375 29.3465227817746  C 33.8020833333333 29.3465227817746  34.388427734375 29.1266986410871  34.844970703125 28.6870503597122  Z M 28.533935546875 13.923860911271  C 28.9725748697917 13.4342525979217  29.19189453125 12.7797761790568  29.19189453125 11.9604316546763  C 29.19189453125 11.1410871302958  28.9725748697917 10.4816147082334  28.533935546875 9.98201438848921  C 28.0952962239583 9.482414068745  27.5089518229167 9.2326139088729  26.77490234375 9.2326139088729  C 26.0050455729167 9.2326139088729  25.32470703125 9.48741007194245  24.73388671875 9.99700239808153  C 24.14306640625 10.5065947242206  23.84765625 11.1610711430855  23.84765625 11.9604316546763  C 23.84765625 12.7398081534772  24.14306640625 13.3842925659472  24.73388671875 13.8938848920863  C 25.32470703125 14.4034772182254  26.0050455729167 14.658273381295  26.77490234375 14.658273381295  C 27.5089518229167 14.658273381295  28.0952962239583 14.4134692246203  28.533935546875 13.923860911271  Z M 45.546875 28.6870503597122  C 46.0123697916667 28.2474020783373  46.2451171875 27.7378097521982  46.2451171875 27.158273381295  C 46.2451171875 26.5987210231814  46.0123697916667 26.0991207034373  45.546875 25.6594724220623  C 45.0813802083333 25.2198241406874  44.49951171875 25  43.80126953125 25  C 43.31787109375 25  42.874755859375 25.2248201438849  42.471923828125 25.6744604316547  C 42.069091796875 26.1241007194245  41.86767578125 26.6187050359712  41.86767578125 27.158273381295  C 41.86767578125 27.7178257394085  42.069091796875 28.2224220623501  42.471923828125 28.6720623501199  C 42.874755859375 29.1217026378897  43.31787109375 29.3465227817746  43.80126953125 29.3465227817746  C 44.49951171875 29.3465227817746  45.0813802083333 29.1266986410871  45.546875 28.6870503597122  Z M 35.435791015625 7.44904076738609  C 37.3246256510417 9.77717825739408  38.5465494791667 12.3800959232614  39.1015625 15.257793764988  C 38.5465494791667 15.1778577138289  37.919921875 15.1378896882494  37.2216796875 15.1378896882494  C 34.1959635416667 15.1378896882494  31.4119466145833 15.9072741806555  28.86962890625 17.4460431654676  C 26.3273111979167 18.9848121502798  24.3265787760417 21.0681454836131  22.867431640625 23.6960431654676  C 21.4082845052083 26.3239408473221  20.6787109375 29.1966426858513  20.6787109375 32.3141486810552  C 20.6787109375 33.8729016786571  20.8846028645833 35.3916866506795  21.29638671875 36.8705035971223  C 20.6697591145833 36.9304556354916  20.06103515625 36.9604316546763  19.47021484375 36.9604316546763  C 19.0047200520833 36.9604316546763  18.55712890625 36.9454436450839  18.12744140625 36.9154676258993  C 17.69775390625 36.8854916067146  17.2054036458333 36.8205435651479  16.650390625 36.720623501199  C 16.0953776041667 36.6207034372502  15.697021484375 36.550759392486  15.455322265625 36.5107913669065  C 15.213623046875 36.4708233413269  14.7257486979167 36.3659072741807  13.99169921875 36.1960431654676  C 13.2576497395833 36.0261790567546  12.81005859375 35.9212629896083  12.64892578125 35.8812949640288  L 5.8544921875 39.6882494004796  L 7.7880859375 33.1534772182254  C 2.59602864583333 29.0967226219025  0 24.2006394884093  0 18.4652278177458  C 0 15.087929656275  0.872802734375 11.980415667466  2.618408203125 9.14268585131894  C 4.364013671875 6.30495603517186  6.727294921875 4.07174260591526  9.708251953125 2.44304556354916  C 12.689208984375 0.81434852118305  15.9431966145833 0  19.47021484375 0  C 22.6212565104167 0  25.5977376302083 0.659472422062352  28.399658203125 1.97841726618705  C 31.2015787760417 3.29736211031175  33.5469563802083 5.1209032773781  35.435791015625 7.44904076738609  Z M 52.703857421875 24.1756594724221  C 54.234619140625 26.6037170263789  55 29.2366107114309  55 32.0743405275779  C 55 34.4124700239808  54.3868001302083 36.6456834532374  53.160400390625 38.7739808153477  C 51.9340006510417 40.902278177458  50.2734375 42.8357314148681  48.1787109375 44.5743405275779  L 49.65576171875 50  L 44.3115234375 46.7326139088729  C 41.6259765625 47.4720223820943  39.6744791666667 47.841726618705  38.45703125 47.841726618705  C 35.4313151041667 47.841726618705  32.6472981770833 47.1372901678657  30.10498046875 45.7284172661871  C 27.5626627604167 44.3195443645084  25.5619303385417 42.4060751398881  24.102783203125 39.9880095923261  C 22.6436360677083 37.5699440447642  21.9140625 34.9320543565148  21.9140625 32.0743405275779  C 21.9140625 29.2166266986411  22.6436360677083 26.5787370103917  24.102783203125 24.1606714628297  C 25.5619303385417 21.7426059152678  27.5626627604167 19.8291366906475  30.10498046875 18.4202637889688  C 32.6472981770833 17.0113908872902  35.4313151041667 16.3069544364508  38.45703125 16.3069544364508  C 41.3395182291667 16.3069544364508  44.0519205729167 17.0113908872902  46.59423828125 18.4202637889688  C 49.1365559895833 19.8291366906475  51.173095703125 21.7476019184652  52.703857421875 24.1756594724221  Z " fill-rule="nonzero" fill="#70b603" stroke="none" transform="matrix(1 0 0 1 160 499 )" />
  </g>
</svg>