<?xml version="1.0" encoding="utf-8"?>
<svg version="1.1" xmlns:xlink="http://www.w3.org/1999/xlink" width="51px" height="46px" xmlns="http://www.w3.org/2000/svg">
  <g transform="matrix(1 0 0 1 -246 -504 )">
    <path d="M 17.4219185722253 36.7968319559229  C 18.1899051868377 36.5117079889807  18.7824874511991 36.010101010101  19.1996653653095 35.2920110192837  C 19.5978806469604 34.5739210284665  19.702175125488 33.8452708907254  19.5125488008924 33.1060606060606  C 19.3229224762967 32.3668503213958  18.8962632459565 31.8388429752066  18.2325711098717 31.5220385674931  C 17.5878416062465 31.2263544536272  16.8957055214724 31.2157943067034  16.1561628555494 31.4903581267218  C 15.4166201896263 31.7649219467401  14.8477412158394 32.2506887052342  14.4495259341885 32.9476584022039  C 14.0323480200781 33.6657483930211  13.9090909090909 34.3891184573003  14.079754601227 35.1177685950413  C 14.2504182933631 35.8464187327824  14.6581148912437 36.3797061524334  15.3028443948689 36.7176308539945  C 15.9475738984941 37.0555555555556  16.6539319576129 37.081955922865  17.4219185722253 36.7968319559229  Z M 21.2476296709426 32.0447658402204  C 21.532069157836 31.9286042240588  21.7406581148912 31.7332415059688  21.8733965421082 31.4586776859504  C 22.0250976017847 31.184113865932  22.058282208589 30.9042699724518  21.9729503625209 30.6191460055096  C 21.8876185164529 30.3340220385675  21.7216954824317 30.1386593204775  21.4751812604573 30.0330578512397  C 21.2097044060234 29.9274563820018  20.9394868934746 29.9327364554637  20.6645287228109 30.0488980716253  C 20.3895705521472 30.165059687787  20.1857222532069 30.3604224058769  20.05298382599 30.6349862258953  C 19.7306190741774 31.2897153351699  19.8538761851645 31.7649219467401  20.4227551589515 32.0606060606061  C 20.6882320133854 32.1662075298439  20.9631901840491 32.160927456382  21.2476296709426 32.0447658402204  Z M 26.7515337423313 28.8133608815427  C 27.6522587841606 30.7247474747475  27.6759620747351 32.7364554637282  26.8226436140547 34.8484848484849  C 25.9693251533742 37.0027548209366  24.4712771890686 38.5867768595041  22.3284997211378 39.6005509641873  C 20.1857222532069 40.6143250688705  18.0619074177356 40.7410468319559  15.9570552147239 39.9807162534435  C 13.9280535415505 39.2626262626263  12.5295593976576 37.9267676767677  11.7615727830452 35.9731404958678  C 10.9935861684328 34.0195133149679  11.0552147239264 32.0394857667585  11.9464584495259 30.0330578512397  C 12.8377021751255 28.068870523416  14.2741215839375 26.6010101010101  16.2557166759621 25.629476584022  C 18.2373117679866 24.657943067034  20.2331288343558 24.4573002754821  22.2431678750697 25.0275482093664  C 24.3480200780814 25.6400367309458  25.850808700502 26.9019742883379  26.7515337423313 28.8133608815427  Z M 31.9283324037925 38.1590909090909  C 34.7063580591188 35.6563360881543  35.962632459565 32.8631772268136  35.6971556051311 29.7796143250689  C 35.526491912995 27.7520661157025  34.6826547685443 25.9568411386593  33.1656441717791 24.3939393939394  C 31.6486335750139 22.8310376492195  29.6717791411043 21.6799816345271  27.2350808700502 20.9407713498623  C 24.7983825989961 20.2015610651974  22.1957612939208 19.979797979798  19.4272169548243 20.2754820936639  C 15.1985499163413 20.7612488521579  11.6952035694367 22.2555096418733  8.91717791411043 24.7582644628099  C 6.13915225878416 27.2610192837466  4.88287785833798 30.0541781450872  5.14835471277189 33.137741046832  C 5.31901840490798 35.1652892561983  6.16285554935862 36.9605142332415  7.67986614612381 38.5234159779614  C 9.19687674288901 40.0863177226814  11.1737311767987 41.2373737373737  13.6104294478528 41.9765840220386  C 16.0471277189069 42.7157943067034  18.6497490239822 42.9375573921028  21.4182933630786 42.6418732782369  C 25.6469604015616 42.1561065197429  29.1503067484663 40.6618457300275  31.9283324037925 38.1590909090909  Z M 43.4907975460123 26.215564738292  C 44.1355270496375 27.3243801652893  44.4578918014501 28.55463728191  44.4578918014501 29.9063360881543  C 44.4578918014501 31.3425160697888  44.1070831009481 32.8156565656566  43.4054656999442 34.3257575757576  C 42.7038482989403 35.8358585858586  41.670384829894 37.2825987144169  40.3050752928054 38.6659779614325  C 38.9397657557167 40.0493572084481  37.3421639709983 41.2901744719927  35.5122699386503 42.3884297520661  C 33.6823759063023 43.4866850321396  31.5395984383715 44.3631772268136  29.0839375348578 45.0179063360882  C 26.6282766313441 45.6726354453627  24.063580591188 46  21.3898494143893 46  C 18.7161182375906 46  16.1087562744004 45.6462350780533  13.5677635248187 44.9387052341598  C 11.026770775237 44.2311753902663  8.74651422197435 43.2490817263545  6.72699386503067 41.9924242424242  C 4.707473508087 40.735766758494  3.08142777467931 39.1411845730028  1.84885666480759 37.2086776859504  C 0.616285554935862 35.2761707988981  0 33.1694214876033  0 30.8884297520661  C 0 28.459595959596  0.658951477969883 25.8723599632691  1.97685443390965 23.1267217630854  C 3.29475738984942 20.3810835629017  5.16731734523146 17.6565656565657  7.59453430005577 14.9531680440771  C 10.7992191857223 11.3838383838384  14.037088678193 8.89164370982552  17.3081427774679 7.47658402203857  C 20.5791968767429 6.06152433425161  22.9163413273843 6.13544536271809  24.3195761293921 7.69834710743802  C 25.5521472392638 9.05004591368227  25.7417735638595 11.257116620753  24.888455103179 14.3195592286501  C 24.8126045733408 14.6152433425161  24.803123257111 14.8264462809917  24.8600111544897 14.9531680440771  C 24.9168990518684 15.0798898071625  25.0117122141662 15.153810835629  25.1444506413832 15.1749311294766  C 25.2771890686001 15.1960514233241  25.414668153932 15.1907713498623  25.5568878973787 15.1590909090909  C 25.6991076408254 15.1274104683196  25.8271054099275 15.0904499540863  25.9408812046849 15.0482093663912  L 26.111544896821 14.9848484848485  C 28.7473508087005 13.7387511478421  31.079754601227 13.1157024793388  33.1087562744004 13.1157024793388  C 35.1377579475739 13.1157024793388  36.5883993307306 13.7598714416896  37.4606804238706 15.0482093663912  C 38.313998884551 16.3787878787879  38.313998884551 18.2584940312213  37.4606804238706 20.6873278236915  C 37.4227551589515 20.9618916437098  37.3800892359175 21.1730945821855  37.3326826547685 21.3209366391185  C 37.2852760736196 21.4687786960514  37.3279419966537 21.6007805325987  37.4606804238706 21.7169421487603  C 37.5934188510876 21.8331037649219  37.707194645845 21.9123048668503  37.8020078081428 21.9545454545455  C 37.8968209704406 21.9967860422406  38.0580033463469 22.0601469237833  38.2855549358617 22.1446280991736  C 39.3664249860569 22.5247933884298  40.3430005577245 23.0211202938476  41.2152816508645 23.633608815427  C 42.0875627440045 24.2460973370064  42.8460680423871 25.1067493112948  43.4907975460123 26.215564738292  Z M 39.4802007808143 8.06267217630854  C 40.5989960959286 8.45339761248852  41.5566090351366 9.14508723599632  42.3530395984384 10.137741046832  C 43.1494701617401 11.1303948576676  43.6662018962632 12.2761707988981  43.9032348020078 13.5750688705234  C 44.1402677077524 14.8739669421488  44.0786391522588 16.1147842056933  43.718349135527 17.297520661157  C 43.5666480758505 17.7832874196511  43.286949247072 18.1423324150597  42.8792526491913 18.3746556473829  C 42.4715560513107 18.6069788797062  42.0496374790853 18.6492194674013  41.6134969325153 18.5013774104683  C 41.1773563859453 18.3324150596878  40.8549916341327 18.0208907254362  40.6464026770775 17.5668044077135  C 40.4378137200223 17.1127180899908  40.3998884551032 16.6427915518825  40.5326268823201 16.1570247933884  C 40.9118795315114 14.8264462809917  40.6843279419967 13.6542699724518  39.8499721137758 12.6404958677686  C 39.0156162855549 11.6267217630854  38.0011154489682 11.257116620753  36.8064696040156 11.5316804407713  C 36.3513664249861 11.6372819100092  35.9247071946458 11.5528007346189  35.526491912995 11.2782369146006  C 35.1282766313441 11.0036730945822  34.8912437255996 10.6129476584022  34.8153931957613 10.1060606060606  C 34.7205800334635 9.59917355371901  34.7964305633017 9.12924701561065  35.0429447852761 8.69628099173553  C 35.2894590072504 8.26331496786042  35.6402677077524 7.99403122130395  36.0953708867819 7.88842975206612  C 37.2331288343558 7.61386593204775  38.3614054656999 7.67194674012855  39.4802007808143 8.06267217630854  Z M 41.585052983826 0.712809917355371  C 43.8795315114333 1.50482093663912  45.8516452872281 2.92516069788797  47.5013943112103 4.97382920110193  C 49.1511433351924 7.00137741046832  50.2177914110429 9.3510101010101  50.7013385387619 12.0227272727273  C 51.1848856664808 14.6944444444444  51.0568878973787 17.2447199265381  50.3173452314557 19.6735537190083  C 50.1466815393196 20.2438016528926  49.824316787507 20.6662075298439  49.3502509760178 20.9407713498623  C 48.8761851645287 21.2153351698806  48.38315672058 21.2575757575758  47.8711656441718 21.0674931129477  C 47.3591745677635 20.8774104683196  46.9799219185722 20.5183654729109  46.7334076965979 19.9903581267218  C 46.4868934746235 19.4623507805326  46.4394868934746 18.9132231404959  46.5911879531511 18.3429752066116  C 47.122141662019 16.6111111111111  47.2169548243168 14.7947658402204  46.8756274400446 12.8939393939394  C 46.5343000557724 10.9931129476584  45.7757947573899 9.32460973370064  44.6001115448968 7.88842975206612  C 43.4244283324038 6.43112947658402  42.021193530396 5.42263544536271  40.3904071388734 4.8629476584022  C 38.7596207473508 4.30325987144169  37.1193530395984 4.21349862258953  35.4696040156163 4.59366391184573  C 34.9386503067485 4.72038567493113  34.4456218627998 4.62006427915519  33.9905186837702 4.2926997245179  C 33.5354155047407 3.96533516988062  33.2509760178472 3.50596877869604  33.1372002230898 2.91460055096419  C 33.0234244283324 2.32323232323232  33.1134969325153 1.77938475665748  33.4074177356386 1.28305785123967  C 33.7013385387619 0.786730945821855  34.1137757947574 0.475206611570249  34.6447295036252 0.348484848484848  C 36.9771332961517 -0.20064279155189  39.2905744562186 -0.0792011019283723  41.585052983826 0.712809917355371  Z " fill-rule="nonzero" fill="#f59a23" stroke="none" transform="matrix(1 0 0 1 246 504 )" />
  </g>
</svg>