<?xml version="1.0" encoding="utf-8"?>
<svg version="1.1" xmlns:xlink="http://www.w3.org/1999/xlink" width="13px" height="25px" xmlns="http://www.w3.org/2000/svg">
  <g transform="matrix(1 0 0 1 -332 -120 )">
    <path d="M 12.7766323024055 11.9238476953908  C 12.9255441008018 12.0908483633935  13 12.2828991315965  13 12.5  C 13 12.7171008684035  12.9255441008018 12.9091516366065  12.7766323024055 13.0761523046092  L 2.36769759450172 24.749498997996  C 2.21878579610538 24.9164996659987  2.0475372279496 25  1.85395189003436 25  C 1.66036655211913 25  1.48911798396334 24.9164996659987  1.34020618556701 24.749498997996  L 0.223367697594502 23.496993987976  C 0.0744558991981673 23.3299933199733  0 23.1379425517702  0 22.9208416833667  C 0 22.7037408149633  0.0744558991981673 22.5116900467602  0.223367697594502 22.3446893787575  L 9.00171821305842 12.5  L 0.223367697594502 2.65531062124249  C 0.0744558991981673 2.48830995323981  0 2.29625918503674  0 2.07915831663327  C 0 1.86205744822979  0.0744558991981673 1.67000668002672  0.223367697594502 1.50300601202405  L 1.34020618556701 0.250501002004008  C 1.48911798396334 0.0835003340013352  1.66036655211913 0  1.85395189003436 0  C 2.0475372279496 0  2.21878579610538 0.0835003340013352  2.36769759450172 0.250501002004008  L 12.7766323024055 11.9238476953908  Z " fill-rule="nonzero" fill="#d7d7d7" stroke="none" transform="matrix(1 0 0 1 332 120 )" />
  </g>
</svg>