<?xml version="1.0" encoding="utf-8"?>
<svg version="1.1" xmlns:xlink="http://www.w3.org/1999/xlink" width="25px" height="25px" xmlns="http://www.w3.org/2000/svg">
  <g transform="matrix(1 0 0 1 -326 -70 )">
    <path d="M 338.5 70  C 345.5 70  351 75.5  351 82.5  C 351 89.5  345.5 95  338.5 95  C 331.5 95  326 89.5  326 82.5  C 326 75.5  331.5 70  338.5 70  Z " fill-rule="nonzero" fill="#ffffff" stroke="none" />
    <path d="M 338.5 70.5  C 345.22 70.5  350.5 75.78  350.5 82.5  C 350.5 89.22  345.22 94.5  338.5 94.5  C 331.78 94.5  326.5 89.22  326.5 82.5  C 326.5 75.78  331.78 70.5  338.5 70.5  Z " stroke-width="1" stroke="#fc7298" fill="none" />
  </g>
</svg>