<?xml version="1.0" encoding="utf-8"?>
<svg version="1.1" xmlns:xlink="http://www.w3.org/1999/xlink" width="54px" height="23px" xmlns="http://www.w3.org/2000/svg">
  <defs>
    <mask fill="white" id="clip17">
      <path d="M 0 23  L 0 0  L 18.1512605042017 0  L 26.7731092436975 0  L 54 0  L 54 23  L 38.5714285714286 23  L 0 23  Z " fill-rule="evenodd" />
    </mask>
  </defs>
  <g transform="matrix(1 0 0 1 -294 -70 )">
    <path d="M 0 23  L 0 0  L 18.1512605042017 0  L 26.7731092436975 0  L 54 0  L 54 23  L 38.5714285714286 23  L 0 23  Z " fill-rule="nonzero" fill="#ffffff" stroke="none" transform="matrix(1 0 0 1 294 70 )" />
    <path d="M 0 23  L 0 0  L 18.1512605042017 0  L 26.7731092436975 0  L 54 0  L 54 23  L 38.5714285714286 23  L 0 23  Z " stroke-width="2" stroke="#ffffff" fill="none" transform="matrix(1 0 0 1 294 70 )" mask="url(#clip17)" />
  </g>
</svg>