<?xml version="1.0" encoding="utf-8"?>
<svg version="1.1" xmlns:xlink="http://www.w3.org/1999/xlink" width="210px" height="80px" xmlns="http://www.w3.org/2000/svg">
  <g transform="matrix(1 0 0 1 -16 -10 )">
    <path d="M 16 10  L 226 10  L 226 90  L 16 90  L 16 10  " fill-rule="nonzero" fill="#cccccc" stroke="none" />
    <path d="M 22 16  L 220 16  L 220 84  L 22 84  L 22 16  " fill-rule="nonzero" fill="#ffffff" stroke="none" />
    <path d="M 131.2 34  C 127.84 34  125.2 31.36  125.2 28  C 125.2 24.64  127.84 22  131.2 22  C 134.56 22  137.2 24.64  137.2 28  C 137.2 31.36  134.56 34  131.2 34  " fill-rule="nonzero" fill="#cccccc" stroke="none" />
    <path d="M 24 82  L 24 46.8  L 72.5 30.8  L 140.4 67.3714285714286  L 179.2 40.4  L 218 67.3714285714286  L 218 82  L 24 82  " fill-rule="nonzero" fill="#169bd5" stroke="none" />
  </g>
</svg>